<?xml version="1.0" encoding="UTF-8" standalone="no"?>
<svg
   width="380"
   height="489.333333"
   viewBox="0 0 380 489.333333"
   version="1.1"
   id="svg301"
   sodipodi:docname="transformer_full_.svg"
   inkscape:version="1.3.2 (091e20e, 2023-11-25)"
   xmlns:inkscape="http://www.inkscape.org/namespaces/inkscape"
   xmlns:sodipodi="http://sodipodi.sourceforge.net/DTD/sodipodi-0.dtd"
   xmlns="http://www.w3.org/2000/svg"
   xmlns:svg="http://www.w3.org/2000/svg">
  <sodipodi:namedview
     id="namedview301"
     pagecolor="#ffffff"
     bordercolor="#000000"
     borderopacity="0.25"
     inkscape:showpageshadow="2"
     inkscape:pageopacity="0.0"
     inkscape:pagecheckerboard="0"
     inkscape:deskcolor="#d1d1d1"
     inkscape:zoom="1.7768281"
     inkscape:cx="175.5938"
     inkscape:cy="211.89445"
     inkscape:window-width="752"
     inkscape:window-height="896"
     inkscape:window-x="12"
     inkscape:window-y="46"
     inkscape:window-maximized="0"
     inkscape:current-layer="svg301" />
  <defs
     id="defs2">
    <clipPath
       id="clip1">
      <path
         d="M 348 209 L 354.332031 209 L 354.332031 215 L 348 215 Z M 348 209 "
         id="path1" />
    </clipPath>
    <clipPath
       id="clip2">
      <path
         d="M 23 271 L 29 271 L 29 277.300781 L 23 277.300781 Z M 23 271 "
         id="path2" />
    </clipPath>
  </defs>
  <path
     style="fill:none;stroke:#000000;stroke-width:1.33333;stroke-linecap:round;stroke-linejoin:round;stroke-miterlimit:10;stroke-dasharray:5.33333, 5.33333;stroke-opacity:1"
     d="m 219.9998,67.468669 h 107.48434 c 5.89063,0 10.66797,4.777345 10.66797,10.66797 V 359.99985 c 0,5.89062 -4.77734,10.66797 -10.66797,10.66797 H 219.9998 c -5.89063,0 -10.66798,-4.77735 -10.66798,-10.66797 V 78.136639 c 0,-5.890625 4.77735,-10.66797 10.66798,-10.66797 z m 0,0"
     id="path3" />
  <path
     style="fill:#b0d9ff;fill-opacity:1;fill-rule:nonzero;stroke:#000000;stroke-width:1.33333;stroke-linecap:round;stroke-linejoin:round;stroke-miterlimit:10;stroke-opacity:1"
     d="m 228.01933,113.82412 h 82.93356 v 34.92969 h -82.93356 z m 0,0"
     id="path109" />
  <path
     style="fill:#000000;fill-opacity:1;fill-rule:nonzero;stroke:none"
     d="m 237.05469,128.23047 v -8.58203 h 3.25 c 0.5664,0 1.0039,0.0312 1.3125,0.082 0.41797,0.0742 0.76172,0.20312 1.04297,0.39453 0.28906,0.19922 0.51953,0.47656 0.6875,0.83594 0.17578,0.34765 0.26953,0.73828 0.26953,1.16406 0,0.74219 -0.23828,1.35547 -0.70703,1.85547 -0.46094,0.5 -1.29297,0.75 -2.5,0.75 h -2.21094 v 3.5 z m 1.14453,-4.5 h 2.23047 c 0.71875,0 1.23437,-0.13672 1.54297,-0.41797 0.3164,-0.27344 0.47656,-0.65625 0.47656,-1.14453 0,-0.35938 -0.0937,-0.66797 -0.26953,-0.91797 -0.1836,-0.25781 -0.42578,-0.4375 -0.73047,-0.51953 -0.17969,-0.0508 -0.53516,-0.082 -1.0625,-0.082 h -2.1875 z m 0,0"
     id="path110" />
  <path
     style="fill:#000000;fill-opacity:1;fill-rule:nonzero;stroke:none"
     d="m 244.53906,125.125 c 0,-1.14844 0.31641,-2.00391 0.95703,-2.5625 0.54297,-0.45703 1.19141,-0.6875 1.95703,-0.6875 0.85938,0 1.5625,0.28125 2.10547,0.83594 0.54297,0.55469 0.8125,1.32812 0.8125,2.3125 0,0.80469 -0.125,1.4375 -0.375,1.89453 -0.23828,0.45703 -0.58203,0.82422 -1.04297,1.08203 -0.45703,0.25 -0.95703,0.375 -1.5,0.375 -0.875,0 -1.58203,-0.27344 -2.125,-0.83203 -0.53125,-0.56641 -0.78906,-1.375 -0.78906,-2.41797 z m 1.08203,0 c 0,0.79297 0.17188,1.39063 0.51953,1.79297 0.34375,0.39062 0.78125,0.58203 1.3125,0.58203 0.52735,0 0.96485,-0.19141 1.3125,-0.58203 0.34375,-0.40234 0.52344,-1.01172 0.52344,-1.83203 0,-0.76172 -0.17969,-1.34375 -0.52344,-1.75 -0.34765,-0.40235 -0.78515,-0.60547 -1.3125,-0.60547 -0.53125,0 -0.96875,0.20312 -1.3125,0.60547 -0.34765,0.39062 -0.51953,0.98828 -0.51953,1.78906 z m 0,0"
     id="path111" />
  <path
     style="fill:#000000;fill-opacity:1;fill-rule:nonzero;stroke:none"
     d="m 251.19141,126.375 1.04296,-0.16406 c 0.0508,0.41406 0.21094,0.73828 0.47657,0.95703 0.27734,0.22266 0.65234,0.33203 1.125,0.33203 0.48437,0 0.84375,-0.0937 1.08593,-0.28906 0.23438,-0.19531 0.35157,-0.42188 0.35157,-0.6875 0,-0.25 -0.10157,-0.4375 -0.3125,-0.5625 -0.15625,-0.0937 -0.51563,-0.21875 -1.08203,-0.375 -0.78125,-0.19531 -1.32422,-0.35938 -1.625,-0.5 -0.29297,-0.13672 -0.51563,-0.33594 -0.66797,-0.58594 -0.15625,-0.25 -0.22657,-0.52344 -0.22657,-0.83203 0,-0.27734 0.0625,-0.53125 0.1875,-0.76953 0.125,-0.23438 0.29688,-0.4375 0.51954,-0.60547 0.16796,-0.10938 0.38671,-0.20703 0.66796,-0.29297 0.28907,-0.082 0.59375,-0.125 0.91407,-0.125 0.48437,0 0.90625,0.0742 1.27343,0.21094 0.375,0.14062 0.64844,0.32812 0.83204,0.5625 0.17578,0.23828 0.30078,0.55469 0.375,0.95703 l -1.04297,0.14453 c -0.0391,-0.31641 -0.17969,-0.56641 -0.41407,-0.75 -0.22656,-0.17578 -0.53906,-0.26953 -0.9375,-0.26953 -0.49218,0 -0.83593,0.082 -1.04296,0.25 -0.20704,0.15625 -0.3125,0.34375 -0.3125,0.5625 0,0.14062 0.043,0.26172 0.125,0.35547 0.082,0.125 0.21875,0.22265 0.41796,0.28906 0.0937,0.043 0.39844,0.13672 0.91407,0.27344 0.75,0.19531 1.27343,0.35156 1.5625,0.47656 0.30468,0.125 0.54297,0.3125 0.71093,0.5625 0.16407,0.24219 0.25,0.53906 0.25,0.89844 0,0.36328 -0.10546,0.69531 -0.3125,1 -0.21093,0.30469 -0.51171,0.55078 -0.89843,0.72656 -0.375,0.16797 -0.8125,0.25 -1.3125,0.25 -0.80469,0 -1.42578,-0.16406 -1.85157,-0.5 -0.41796,-0.34375 -0.68359,-0.84375 -0.79296,-1.5 z m 0,0"
     id="path112" />
  <path
     style="fill:#000000;fill-opacity:1;fill-rule:nonzero;stroke:none"
     d="m 257.60937,120.85547 v -1.20703 h 1.0625 v 1.20703 z m 0,7.375 V 122 h 1.0625 v 6.23047 z m 0,0"
     id="path113" />
  <path
     style="fill:#000000;fill-opacity:1;fill-rule:nonzero;stroke:none"
     d="m 262.58594,127.29297 0.14453,0.91797 c -0.30469,0.0664 -0.57031,0.10156 -0.78906,0.10156 -0.39063,0 -0.6875,-0.0625 -0.89844,-0.1875 -0.20703,-0.125 -0.36328,-0.28125 -0.45703,-0.47656 -0.082,-0.19531 -0.125,-0.60547 -0.125,-1.23047 v -3.58203 h -0.76953 V 122 h 0.76953 v -1.53906 l 1.0625,-0.625 V 122 h 1.0625 v 0.83594 h -1.0625 v 3.625 c 0,0.30469 0.0117,0.5 0.043,0.58203 0.0391,0.082 0.10156,0.15625 0.1875,0.20703 0.082,0.0586 0.19531,0.0859 0.35156,0.0859 0.125,0 0.28125,-0.0117 0.48047,-0.043 z m 0,0"
     id="path114" />
  <path
     style="fill:#000000;fill-opacity:1;fill-rule:nonzero;stroke:none"
     d="m 263.60937,120.85547 v -1.20703 h 1.0625 v 1.20703 z m 0,7.375 V 122 h 1.0625 v 6.23047 z m 0,0"
     id="path115" />
  <path
     style="fill:#000000;fill-opacity:1;fill-rule:nonzero;stroke:none"
     d="m 265.87891,125.125 c 0,-1.14844 0.3164,-2.00391 0.95703,-2.5625 0.54297,-0.45703 1.1914,-0.6875 1.95703,-0.6875 0.85937,0 1.5625,0.28125 2.10547,0.83594 0.54297,0.55469 0.8125,1.32812 0.8125,2.3125 0,0.80469 -0.125,1.4375 -0.375,1.89453 -0.23828,0.45703 -0.58203,0.82422 -1.04297,1.08203 -0.45703,0.25 -0.95703,0.375 -1.5,0.375 -0.875,0 -1.58203,-0.27344 -2.125,-0.83203 -0.53125,-0.56641 -0.78906,-1.375 -0.78906,-2.41797 z m 1.08203,0 c 0,0.79297 0.17187,1.39063 0.51953,1.79297 0.34375,0.39062 0.78125,0.58203 1.3125,0.58203 0.52734,0 0.96484,-0.19141 1.3125,-0.58203 0.34375,-0.40234 0.52344,-1.01172 0.52344,-1.83203 0,-0.76172 -0.17969,-1.34375 -0.52344,-1.75 -0.34766,-0.40235 -0.78516,-0.60547 -1.3125,-0.60547 -0.53125,0 -0.96875,0.20312 -1.3125,0.60547 -0.34766,0.39062 -0.51953,0.98828 -0.51953,1.78906 z m 0,0"
     id="path116" />
  <path
     style="fill:#000000;fill-opacity:1;fill-rule:nonzero;stroke:none"
     d="M 272.94922,128.23047 V 122 h 0.95703 v 0.89844 c 0.44141,-0.67969 1.10547,-1.02344 1.98047,-1.02344 0.375,0 0.71094,0.0742 1.01953,0.21094 0.31641,0.125 0.55078,0.30078 0.70703,0.51953 0.15234,0.20703 0.26172,0.46875 0.33594,0.76953 0.0391,0.19922 0.0625,0.53906 0.0625,1.02344 v 3.83203 h -1.0625 v -3.79297 c 0,-0.42578 -0.043,-0.75 -0.125,-0.95703 -0.0859,-0.20703 -0.23047,-0.375 -0.4375,-0.5 -0.21094,-0.13672 -0.45313,-0.20703 -0.73047,-0.20703 -0.44922,0 -0.83203,0.14453 -1.16797,0.4375 -0.32031,0.28125 -0.47656,0.82031 -0.47656,1.625 v 3.39453 z m 0,0"
     id="path117" />
  <path
     style="fill:#000000;fill-opacity:1;fill-rule:nonzero;stroke:none"
     d="M 280.76953,128.23047 278.87109,122 h 1.08594 l 1,3.60547 0.35156,1.33203 c 0.0117,-0.0664 0.125,-0.5 0.33594,-1.28906 L 282.62109,122 h 1.08594 l 0.9375,3.625 0.3125,1.1875 0.35156,-1.20703 1.0625,-3.60547 h 1.02344 l -1.9375,6.23047 h -1.08594 l -1,-3.73047 -0.25,-1.0625 -1.25,4.79297 z m 0,0"
     id="path118" />
  <path
     style="fill:#000000;fill-opacity:1;fill-rule:nonzero;stroke:none"
     d="m 288.28906,120.85547 v -1.20703 h 1.0625 v 1.20703 z m 0,7.375 V 122 h 1.0625 v 6.23047 z m 0,0"
     id="path119" />
  <path
     style="fill:#000000;fill-opacity:1;fill-rule:nonzero;stroke:none"
     d="m 290.53906,126.375 1.04297,-0.16406 c 0.0508,0.41406 0.21094,0.73828 0.47656,0.95703 0.27735,0.22266 0.65235,0.33203 1.125,0.33203 0.48438,0 0.84375,-0.0937 1.08594,-0.28906 0.23438,-0.19531 0.35156,-0.42188 0.35156,-0.6875 0,-0.25 -0.10156,-0.4375 -0.3125,-0.5625 -0.15625,-0.0937 -0.51562,-0.21875 -1.08203,-0.375 -0.78125,-0.19531 -1.32422,-0.35938 -1.625,-0.5 -0.29297,-0.13672 -0.51562,-0.33594 -0.66797,-0.58594 -0.15625,-0.25 -0.22656,-0.52344 -0.22656,-0.83203 0,-0.27734 0.0625,-0.53125 0.1875,-0.76953 0.125,-0.23438 0.29688,-0.4375 0.51953,-0.60547 0.16797,-0.10938 0.38672,-0.20703 0.66797,-0.29297 0.28906,-0.082 0.59375,-0.125 0.91406,-0.125 0.48438,0 0.90625,0.0742 1.27344,0.21094 0.375,0.14062 0.64844,0.32812 0.83203,0.5625 0.17578,0.23828 0.30078,0.55469 0.375,0.95703 l -1.04297,0.14453 c -0.0391,-0.31641 -0.17968,-0.56641 -0.41406,-0.75 -0.22656,-0.17578 -0.53906,-0.26953 -0.9375,-0.26953 -0.49219,0 -0.83594,0.082 -1.04297,0.25 -0.20703,0.15625 -0.3125,0.34375 -0.3125,0.5625 0,0.14062 0.043,0.26172 0.125,0.35547 0.082,0.125 0.21875,0.22265 0.41797,0.28906 0.0937,0.043 0.39844,0.13672 0.91406,0.27344 0.75,0.19531 1.27344,0.35156 1.5625,0.47656 0.30469,0.125 0.54297,0.3125 0.71094,0.5625 0.16406,0.24219 0.25,0.53906 0.25,0.89844 0,0.36328 -0.10547,0.69531 -0.3125,1 -0.21094,0.30469 -0.51172,0.55078 -0.89844,0.72656 -0.375,0.16797 -0.8125,0.25 -1.3125,0.25 -0.80468,0 -1.42578,-0.16406 -1.85156,-0.5 -0.41797,-0.34375 -0.68359,-0.84375 -0.79297,-1.5 z m 0,0"
     id="path120" />
  <path
     style="fill:#000000;fill-opacity:1;fill-rule:nonzero;stroke:none"
     d="m 301.20703,126.23047 1.10156,0.125 c -0.17968,0.64062 -0.50781,1.14062 -0.97656,1.5 -0.46094,0.34765 -1.05469,0.51953 -1.77344,0.51953 -0.90625,0 -1.625,-0.27344 -2.16406,-0.83203 -0.53125,-0.56641 -0.79297,-1.35938 -0.79297,-2.375 0,-1.04297 0.26953,-1.84375 0.8125,-2.41797 0.54297,-0.58203 1.23828,-0.875 2.10547,-0.875 0.83203,0 1.50391,0.28906 2.01953,0.85547 0.52735,0.55859 0.79297,1.34766 0.79297,2.375 0,0.0742 0,0.16797 0,0.29297 h -4.64844 c 0.043,0.67969 0.23438,1.20312 0.58594,1.5625 0.34375,0.36328 0.78125,0.53906 1.3125,0.53906 0.38281,0 0.71094,-0.0937 0.97656,-0.28906 0.27735,-0.21094 0.49219,-0.53125 0.64844,-0.98047 z m -3.46094,-1.70703 h 3.48047 c -0.043,-0.52735 -0.17578,-0.92188 -0.39453,-1.1875 -0.33594,-0.40235 -0.77344,-0.60547 -1.3125,-0.60547 -0.49219,0 -0.89844,0.16797 -1.23047,0.5 -0.32422,0.32422 -0.5,0.75 -0.54297,1.29297 z m 0,0"
     id="path121" />
  <path
     style="fill:#000000;fill-opacity:1;fill-rule:nonzero;stroke:none"
     d="m 258.80078,141.95703 v -8.58594 h 5.79297 v 1 h -4.64453 v 2.66797 h 4.01953 v 1.01953 h -4.01953 v 3.89844 z m 0,0"
     id="path122" />
  <path
     style="fill:#000000;fill-opacity:1;fill-rule:nonzero;stroke:none"
     d="m 266.13281,141.95703 v -8.58594 h 5.78906 v 1 h -4.64453 v 2.66797 h 4.01953 v 1.01953 h -4.01953 v 3.89844 z m 0,0"
     id="path123" />
  <path
     style="fill:#000000;fill-opacity:1;fill-rule:nonzero;stroke:none"
     d="m 273.39844,141.95703 v -8.58594 h 1.16797 l 4.5,6.73047 v -6.73047 h 1.10156 v 8.58594 h -1.16406 l -4.52344,-6.75 v 6.75 z m 0,0"
     id="path124" />
  <path
     style="fill:none;stroke:#000000;stroke-width:1.33333;stroke-linecap:round;stroke-linejoin:round;stroke-miterlimit:10;stroke-opacity:1"
     d="m 227.81229,78.644453 h 82.93358 v 21.335928 h -82.93358 z m 0,0"
     id="path125" />
  <path
     style="fill:#000000;fill-opacity:1;fill-rule:nonzero;stroke:none"
     d="m 237.57812,93.113281 3.3125,-8.582031 h 1.20704 l 3.52343,8.582031 h -1.29297 l -1,-2.601562 h -3.60546 l -0.9375,2.601562 z m 2.48047,-3.519531 h 2.91407 l -0.89454,-2.394531 c -0.28125,-0.71875 -0.48046,-1.3125 -0.60546,-1.773438 -0.11329,0.558594 -0.26954,1.105469 -0.47657,1.648438 z m 0,0"
     id="path126" />
  <path
     style="fill:#000000;fill-opacity:1;fill-rule:nonzero;stroke:none"
     d="m 250.4375,93.113281 v -0.789062 c -0.40625,0.625 -0.99219,0.9375 -1.75,0.9375 -0.49219,0 -0.9375,-0.140625 -1.35547,-0.417969 -0.41797,-0.277344 -0.74609,-0.65625 -0.98047,-1.144531 -0.22265,-0.484375 -0.33203,-1.046875 -0.33203,-1.6875 0,-0.625 0.10547,-1.1875 0.3125,-1.6875 0.20703,-0.511719 0.51172,-0.902344 0.91797,-1.167969 0.41406,-0.261719 0.87891,-0.394531 1.39453,-0.394531 0.375,0 0.70703,0.07813 1,0.226562 0.29297,0.15625 0.52734,0.367188 0.70703,0.625 V 84.53125 h 1.0625 v 8.582031 z m -3.33594,-3.101562 c 0,0.789062 0.16797,1.390625 0.5,1.789062 0.33594,0.390625 0.73047,0.585938 1.1875,0.585938 0.46094,0 0.84375,-0.1875 1.16797,-0.5625 0.33203,-0.375 0.5,-0.949219 0.5,-1.730469 0,-0.84375 -0.16797,-1.46875 -0.5,-1.875 -0.33203,-0.402344 -0.73828,-0.605469 -1.20703,-0.605469 -0.47656,0 -0.87109,0.199219 -1.1875,0.585938 -0.30859,0.390625 -0.46094,0.992187 -0.46094,1.8125 z m 0,0"
     id="path127" />
  <path
     style="fill:#000000;fill-opacity:1;fill-rule:nonzero;stroke:none"
     d="m 257.10937,93.113281 v -0.789062 c -0.40625,0.625 -0.98828,0.9375 -1.75,0.9375 -0.48828,0 -0.9375,-0.140625 -1.35156,-0.417969 -0.41797,-0.277344 -0.74609,-0.65625 -0.98047,-1.144531 -0.22265,-0.484375 -0.33203,-1.046875 -0.33203,-1.6875 0,-0.625 0.10156,-1.1875 0.3125,-1.6875 0.20703,-0.511719 0.50781,-0.902344 0.91406,-1.167969 0.41797,-0.261719 0.88282,-0.394531 1.39844,-0.394531 0.375,0 0.70703,0.07813 1,0.226562 0.28906,0.15625 0.52344,0.367188 0.70703,0.625 V 84.53125 h 1.0625 v 8.582031 z m -3.33203,-3.101562 c 0,0.789062 0.16797,1.390625 0.5,1.789062 0.33203,0.390625 0.73047,0.585938 1.1875,0.585938 0.45703,0 0.84375,-0.1875 1.16797,-0.5625 0.33203,-0.375 0.5,-0.949219 0.5,-1.730469 0,-0.84375 -0.16797,-1.46875 -0.5,-1.875 -0.33594,-0.402344 -0.74219,-0.605469 -1.21094,-0.605469 -0.47265,0 -0.86718,0.199219 -1.1875,0.585938 -0.30468,0.390625 -0.45703,0.992187 -0.45703,1.8125 z m 0,0"
     id="path128" />
  <path
     style="fill:#000000;fill-opacity:1;fill-rule:nonzero;stroke:none"
     d="m 267.99219,92.09375 c -0.34766,0.390625 -0.72657,0.683594 -1.14453,0.875 -0.40625,0.191406 -0.84766,0.292969 -1.33204,0.292969 -0.875,0 -1.57421,-0.296875 -2.08593,-0.898438 -0.41407,-0.484375 -0.625,-1.023437 -0.625,-1.625 0,-0.523437 0.16797,-1 0.5,-1.414062 0.34375,-0.429688 0.85937,-0.8125 1.54297,-1.148438 -0.39063,-0.441406 -0.64454,-0.800781 -0.76954,-1.082031 -0.125,-0.277344 -0.1875,-0.542969 -0.1875,-0.792969 0,-0.523437 0.19532,-0.976562 0.60157,-1.351562 0.40234,-0.375 0.90625,-0.5625 1.52343,-0.5625 0.58204,0 1.0625,0.179687 1.4375,0.539062 0.375,0.351563 0.5625,0.78125 0.5625,1.292969 0,0.808594 -0.54296,1.5 -1.625,2.082031 l 1.53907,1.960938 c 0.17968,-0.335938 0.32031,-0.730469 0.41797,-1.1875 l 1.08203,0.226562 c -0.17969,0.75 -0.42969,1.371094 -0.75,1.855469 0.38672,0.53125 0.83593,0.96875 1.33593,1.3125 l -0.71093,0.855469 c -0.42969,-0.277344 -0.86719,-0.6875 -1.3125,-1.230469 z m -2.14453,-4.480469 c 0.45703,-0.257812 0.75,-0.488281 0.875,-0.6875 0.13671,-0.207031 0.20703,-0.4375 0.20703,-0.6875 0,-0.289062 -0.0977,-0.523437 -0.28907,-0.707031 -0.18359,-0.191406 -0.41406,-0.292969 -0.6875,-0.292969 -0.28125,0 -0.51562,0.101563 -0.71093,0.292969 -0.17969,0.183594 -0.26953,0.40625 -0.26953,0.667969 0,0.125 0.0273,0.265625 0.082,0.414062 0.0703,0.140625 0.17187,0.292969 0.3125,0.460938 z m 1.48046,3.648438 -1.9375,-2.398438 c -0.57421,0.351563 -0.96093,0.667969 -1.16796,0.960938 -0.19922,0.289062 -0.29297,0.578125 -0.29297,0.851562 0,0.351563 0.13672,0.710938 0.41797,1.085938 0.27734,0.375 0.67187,0.5625 1.1875,0.5625 0.3164,0 0.64453,-0.09375 0.98046,-0.292969 0.33204,-0.191406 0.60157,-0.449219 0.8125,-0.769531 z m 0,0"
     id="path129" />
  <path
     style="fill:#000000;fill-opacity:1;fill-rule:nonzero;stroke:none"
     d="m 274.41406,93.113281 v -6.226562 h 0.96094 v 0.894531 c 0.44141,-0.675781 1.10156,-1.019531 1.97656,-1.019531 0.375,0 0.71485,0.07031 1.02344,0.207031 0.31641,0.125 0.55078,0.300781 0.70703,0.519531 0.15234,0.210938 0.26172,0.46875 0.33203,0.773438 0.043,0.195312 0.0625,0.535156 0.0625,1.019531 v 3.832031 h -1.0625 v -3.789062 c 0,-0.429688 -0.0391,-0.75 -0.125,-0.960938 -0.082,-0.207031 -0.22656,-0.375 -0.4375,-0.5 -0.20703,-0.132812 -0.45312,-0.207031 -0.72656,-0.207031 -0.44922,0 -0.83594,0.144531 -1.16797,0.4375 -0.32422,0.28125 -0.48047,0.824219 -0.48047,1.625 v 3.394531 z m 0,0"
     id="path130" />
  <path
     style="fill:#000000;fill-opacity:1;fill-rule:nonzero;stroke:none"
     d="m 280.69141,90.011719 c 0,-1.152344 0.32031,-2.007813 0.96093,-2.5625 0.53907,-0.460938 1.19141,-0.6875 1.95703,-0.6875 0.85938,0 1.5625,0.28125 2.10547,0.832031 0.53907,0.558594 0.8125,1.328125 0.8125,2.3125 0,0.808594 -0.125,1.4375 -0.375,1.894531 -0.24218,0.460938 -0.58593,0.824219 -1.04297,1.085938 -0.45703,0.25 -0.95703,0.375 -1.5,0.375 -0.875,0 -1.58203,-0.277344 -2.125,-0.835938 -0.53125,-0.566406 -0.79296,-1.375 -0.79296,-2.414062 z m 1.08593,0 c 0,0.789062 0.17188,1.390625 0.51953,1.789062 0.34375,0.390625 0.78125,0.585938 1.3125,0.585938 0.52735,0 0.96485,-0.195313 1.3125,-0.585938 0.34375,-0.398437 0.51954,-1.007812 0.51954,-1.832031 0,-0.761719 -0.17579,-1.34375 -0.51954,-1.75 -0.34765,-0.402344 -0.78515,-0.605469 -1.3125,-0.605469 -0.53125,0 -0.96875,0.203125 -1.3125,0.605469 -0.34765,0.390625 -0.51953,0.988281 -0.51953,1.792969 z m 0,0"
     id="path131" />
  <path
     style="fill:#000000;fill-opacity:1;fill-rule:nonzero;stroke:none"
     d="m 287.74219,93.113281 v -6.226562 h 0.95703 v 0.957031 c 0.23437,-0.441406 0.46094,-0.734375 0.66797,-0.875 0.20703,-0.136719 0.4375,-0.207031 0.6875,-0.207031 0.34375,0 0.70703,0.113281 1.08203,0.332031 l -0.375,0.980469 c -0.25,-0.152344 -0.50781,-0.230469 -0.76953,-0.230469 -0.22266,0 -0.4336,0.07422 -0.625,0.207031 -0.1836,0.140625 -0.3125,0.335938 -0.39453,0.585938 -0.11719,0.375 -0.16797,0.785156 -0.16797,1.226562 v 3.25 z m 0,0"
     id="path132" />
  <path
     style="fill:#000000;fill-opacity:1;fill-rule:nonzero;stroke:none"
     d="m 291.75781,93.113281 v -6.226562 h 0.9375 v 0.875 c 0.19531,-0.304688 0.44922,-0.546875 0.77344,-0.730469 0.33203,-0.175781 0.70703,-0.269531 1.125,-0.269531 0.45703,0 0.83203,0.09766 1.125,0.289062 0.28906,0.183594 0.5,0.449219 0.625,0.792969 0.5,-0.71875 1.13281,-1.082031 1.91406,-1.082031 0.625,0 1.10547,0.175781 1.4375,0.519531 0.33594,0.332031 0.5,0.855469 0.5,1.5625 v 4.269531 h -1.0625 v -3.914062 c 0,-0.429688 -0.0351,-0.734375 -0.10156,-0.917969 -0.0586,-0.175781 -0.17969,-0.324219 -0.35547,-0.4375 -0.18359,-0.125 -0.39453,-0.1875 -0.64453,-0.1875 -0.43359,0 -0.79297,0.144531 -1.08594,0.4375 -0.28906,0.292969 -0.4375,0.761719 -0.4375,1.394531 v 3.625 h -1.0625 v -4.039062 c 0,-0.46875 -0.082,-0.824219 -0.25,-1.0625 -0.16406,-0.234375 -0.44531,-0.355469 -0.83203,-0.355469 -0.30859,0 -0.58203,0.08203 -0.83203,0.25 -0.25,0.15625 -0.43359,0.386719 -0.54297,0.6875 -0.11328,0.292969 -0.16797,0.722656 -0.16797,1.292969 v 3.226562 z m 0,0"
     id="path133" />
  <path
     style="fill:none;stroke:#000000;stroke-width:1.89294;stroke-linecap:round;stroke-linejoin:round;stroke-miterlimit:10;stroke-opacity:1"
     d="m 269.41138,261.3924 -0.0159,-104.4877"
     id="path134" />
  <path
     style="fill:none;stroke:#000000;stroke-width:1.33333;stroke-linecap:butt;stroke-linejoin:miter;stroke-miterlimit:10;stroke-opacity:1"
     d="m 269.59744,151.29287 0.0273,5.33203 m -2,0.012 1.97265,-5.34375 2.02735,5.3164"
     id="path135" />
  <path
     style="fill:none;stroke:#000000;stroke-width:1.33333;stroke-linecap:round;stroke-linejoin:round;stroke-miterlimit:10;stroke-opacity:1"
     d="m 269.40213,113.82412 -0.0312,-5.98046"
     id="path136" />
  <path
     style="fill:none;stroke:#000000;stroke-width:1.33333;stroke-linecap:butt;stroke-linejoin:miter;stroke-miterlimit:10;stroke-opacity:1"
     d="m 269.34353,102.51163 0.0273,5.33203 m -2,0.012 1.97266,-5.34375 2.02734,5.32031"
     id="path137" />
  <path
     style="fill:#b8d7fa;fill-opacity:1;fill-rule:nonzero;stroke:#000000;stroke-width:1.33333;stroke-linecap:round;stroke-linejoin:round;stroke-miterlimit:10;stroke-opacity:1"
     d="m 228.28495,34.13665 h 82.93357 v 21.332022 h -82.93357 z m 0,0"
     id="path145" />
  <path
     style="fill:#000000;fill-opacity:1;fill-rule:nonzero;stroke:none"
     d="m 262.73437,48.605469 v -8.585938 h 5.79297 v 1 h -4.64843 V 43.6875 h 4.02343 v 1.019531 h -4.02343 v 3.898438 z m 0,0"
     id="path146" />
  <path
     style="fill:#000000;fill-opacity:1;fill-rule:nonzero;stroke:none"
     d="m 276.14844,45.582031 1.125,0.292969 c -0.24219,0.933594 -0.66797,1.644531 -1.29297,2.144531 -0.61328,0.492188 -1.3711,0.730469 -2.26953,0.730469 -0.91797,0 -1.66797,-0.1875 -2.25,-0.5625 -0.58594,-0.375 -1.03125,-0.917969 -1.33594,-1.625 -0.28906,-0.71875 -0.4375,-1.488281 -0.4375,-2.3125 0,-0.902344 0.16797,-1.6875 0.5,-2.355469 0.34375,-0.664062 0.83594,-1.164062 1.46094,-1.5 0.63281,-0.34375 1.33203,-0.519531 2.08203,-0.519531 0.85937,0 1.58203,0.222656 2.16797,0.667969 0.59375,0.429687 1.0039,1.039062 1.22656,1.832031 L 276,42.625 c -0.19531,-0.625 -0.47656,-1.074219 -0.85156,-1.355469 -0.375,-0.289062 -0.85547,-0.4375 -1.4375,-0.4375 -0.65625,0 -1.20313,0.164063 -1.64844,0.480469 -0.44531,0.324219 -0.75781,0.75 -0.9375,1.292969 -0.17969,0.53125 -0.26953,1.070312 -0.26953,1.625 0,0.738281 0.10547,1.382812 0.3125,1.9375 0.21875,0.539062 0.55078,0.945312 1,1.207031 0.4414,0.265625 0.92578,0.394531 1.45703,0.394531 0.63672,0 1.17187,-0.175781 1.60547,-0.539062 0.4414,-0.375 0.75,-0.921875 0.91797,-1.648438 z m 0,0"
     id="path147" />
  <path
     style="fill:#66bdff;fill-opacity:1;fill-rule:nonzero;stroke:#000000;stroke-width:1.33333;stroke-linecap:round;stroke-linejoin:round;stroke-miterlimit:10;stroke-opacity:1"
     d="m 227.81229,296.75377 h 82.93358 v 48.29687 h -82.93358 z m 0,0"
     id="path160" />
  <path
     style="fill:#000000;fill-opacity:1;fill-rule:nonzero;stroke:none"
     d="m 249.16797,310.98047 v -8.58203 h 1.70703 l 2.02344,6.08203 c 0.1914,0.55859 0.33203,0.98047 0.41406,1.26953 0.0937,-0.31641 0.25,-0.77344 0.46094,-1.375 l 2.0625,-5.97656 h 1.51953 v 8.58203 h -1.08203 v -7.1875 l -2.5,7.1875 H 252.75 l -2.5,-7.3125 v 7.3125 z m 0,0"
     id="path161" />
  <path
     style="fill:#000000;fill-opacity:1;fill-rule:nonzero;stroke:none"
     d="m 263.12109,310.21094 c -0.39062,0.33203 -0.76562,0.57031 -1.125,0.70703 -0.36328,0.13672 -0.75,0.20703 -1.16406,0.20703 -0.68359,0 -1.21094,-0.16406 -1.58594,-0.5 -0.36328,-0.33203 -0.53906,-0.75781 -0.53906,-1.28906 0,-0.30469 0.0664,-0.58594 0.20703,-0.83594 0.13672,-0.25 0.31641,-0.44531 0.54297,-0.60156 0.21875,-0.15235 0.46875,-0.27344 0.75,-0.35547 0.20703,-0.043 0.51953,-0.0899 0.9375,-0.14453 0.85938,-0.0937 1.48828,-0.21875 1.89453,-0.375 0,-0.13672 0,-0.23047 0,-0.27344 0,-0.42578 -0.0976,-0.72656 -0.29297,-0.89453 -0.28125,-0.25 -0.67968,-0.375 -1.20703,-0.375 -0.5,0 -0.87109,0.0937 -1.10547,0.26953 -0.23828,0.16797 -0.41015,0.47656 -0.51953,0.91797 l -1.01953,-0.125 c 0.082,-0.44141 0.22656,-0.79688 0.4375,-1.0625 0.21875,-0.27735 0.53125,-0.48438 0.9375,-0.625 0.41406,-0.15235 0.88281,-0.23047 1.41406,-0.23047 0.54297,0 0.96875,0.0625 1.29297,0.1875 0.33203,0.125 0.57422,0.28906 0.73047,0.48047 0.16406,0.18359 0.27344,0.41797 0.33203,0.70703 0.043,0.18359 0.0625,0.5 0.0625,0.96094 v 1.41406 c 0,0.97656 0.0195,1.59375 0.0625,1.85547 0.043,0.26562 0.12891,0.51562 0.26953,0.75 h -1.10156 c -0.11719,-0.21875 -0.18359,-0.48047 -0.21094,-0.76953 z m -0.082,-2.35547 c -0.39062,0.15625 -0.96875,0.28515 -1.73047,0.39453 -0.42968,0.0742 -0.73828,0.14844 -0.91406,0.23047 -0.18359,0.0742 -0.32422,0.18359 -0.41797,0.33203 -0.0976,0.15625 -0.14453,0.32422 -0.14453,0.5 0,0.28125 0.10156,0.51562 0.3125,0.71094 0.20703,0.17968 0.51953,0.26953 0.9375,0.26953 0.39844,0 0.75781,-0.0899 1.08203,-0.26953 0.31641,-0.17969 0.55078,-0.42188 0.70703,-0.73047 0.10938,-0.23438 0.16797,-0.58203 0.16797,-1.04297 z m 0,0"
     id="path162" />
  <path
     style="fill:#000000;fill-opacity:1;fill-rule:nonzero;stroke:none"
     d="m 265.31641,309.125 1.04296,-0.16406 c 0.0508,0.41406 0.21485,0.73828 0.48047,0.95703 0.27344,0.22265 0.64844,0.33203 1.125,0.33203 0.48438,0 0.84375,-0.0937 1.08203,-0.28906 0.23438,-0.19532 0.35547,-0.42188 0.35547,-0.6875 0,-0.25 -0.10547,-0.4375 -0.3125,-0.5625 -0.15625,-0.0937 -0.51562,-0.21875 -1.08593,-0.375 -0.78125,-0.19532 -1.32032,-0.35938 -1.625,-0.5 -0.28907,-0.13672 -0.51563,-0.33594 -0.66407,-0.58594 -0.15625,-0.25 -0.23047,-0.52344 -0.23047,-0.83203 0,-0.27735 0.0625,-0.53125 0.1875,-0.76953 0.125,-0.23438 0.29688,-0.4375 0.51954,-0.60547 0.16796,-0.10938 0.38671,-0.20703 0.66796,-0.29297 0.29297,-0.082 0.59375,-0.125 0.91797,-0.125 0.48438,0 0.90625,0.0742 1.26953,0.21094 0.375,0.14062 0.65235,0.32812 0.83204,0.5625 0.17968,0.23828 0.30468,0.55468 0.375,0.95703 L 269.21484,306.5 c -0.043,-0.31641 -0.18359,-0.56641 -0.41797,-0.75 -0.22265,-0.17578 -0.53515,-0.26953 -0.9375,-0.26953 -0.48828,0 -0.83203,0.082 -1.04296,0.25 -0.20704,0.15625 -0.3125,0.34375 -0.3125,0.5625 0,0.14062 0.043,0.26172 0.125,0.35547 0.0859,0.125 0.21875,0.22265 0.41796,0.28906 0.0937,0.043 0.40235,0.13672 0.91797,0.27344 0.75,0.19531 1.26953,0.35156 1.5625,0.47656 0.30078,0.125 0.53907,0.3125 0.70703,0.5625 0.16797,0.24219 0.25,0.53906 0.25,0.89844 0,0.36328 -0.10546,0.69531 -0.3125,1 -0.20703,0.30468 -0.51171,0.55078 -0.89453,0.72656 -0.375,0.16797 -0.8125,0.25 -1.3125,0.25 -0.80859,0 -1.42968,-0.16406 -1.85547,-0.5 -0.41796,-0.34375 -0.68359,-0.84375 -0.79296,-1.5 z m 0,0"
     id="path163" />
  <path
     style="fill:#000000;fill-opacity:1;fill-rule:nonzero;stroke:none"
     d="m 271.73437,310.98047 v -8.58203 h 1.0625 v 4.89453 l 2.5,-2.54297 h 1.35547 l -2.375,2.3125 2.625,3.91797 h -1.3125 l -2.04297,-3.1875 -0.75,0.73047 v 2.45703 z m 0,0"
     id="path164" />
  <path
     style="fill:#000000;fill-opacity:1;fill-rule:nonzero;stroke:none"
     d="m 281.98437,308.98047 1.10547,0.125 c -0.18359,0.64062 -0.51172,1.14062 -0.98047,1.5 -0.45703,0.34765 -1.05078,0.51953 -1.76953,0.51953 -0.90625,0 -1.625,-0.27344 -2.16797,-0.83203 -0.53125,-0.56641 -0.79296,-1.35938 -0.79296,-2.375 0,-1.04297 0.27343,-1.84375 0.8125,-2.41797 0.54296,-0.58203 1.24218,-0.875 2.10546,-0.875 0.83204,0 1.50391,0.28906 2.01954,0.85547 0.52734,0.55859 0.79296,1.34765 0.79296,2.375 0,0.0742 0,0.16797 0,0.29297 h -4.64453 c 0.0391,0.67968 0.23438,1.20312 0.58203,1.5625 0.34375,0.36328 0.78125,0.53906 1.3125,0.53906 0.38672,0 0.71485,-0.0937 0.98047,-0.28906 0.27344,-0.21094 0.48828,-0.53125 0.64453,-0.98047 z m -3.45703,-1.70703 h 3.47657 c -0.0391,-0.52735 -0.17579,-0.92188 -0.39454,-1.1875 -0.33203,-0.40235 -0.76953,-0.60547 -1.3125,-0.60547 -0.48828,0 -0.89453,0.16797 -1.23046,0.5 -0.32032,0.32422 -0.5,0.75 -0.53907,1.29297 z m 0,0"
     id="path165" />
  <path
     style="fill:#000000;fill-opacity:1;fill-rule:nonzero;stroke:none"
     d="m 288.44922,310.98047 v -0.79297 c -0.40625,0.625 -0.98828,0.9375 -1.75,0.9375 -0.48828,0 -0.9375,-0.14063 -1.35156,-0.41406 -0.41797,-0.27735 -0.7461,-0.65625 -0.98047,-1.14844 -0.22266,-0.48438 -0.33203,-1.04688 -0.33203,-1.6875 0,-0.625 0.10156,-1.1875 0.3125,-1.6875 0.20703,-0.50781 0.50781,-0.89844 0.91406,-1.16406 0.41797,-0.26172 0.88281,-0.39844 1.39844,-0.39844 0.375,0 0.70703,0.0781 1,0.23047 0.28906,0.15625 0.52343,0.36328 0.70703,0.625 v -3.08203 h 1.0625 v 8.58203 z m -3.33203,-3.10547 c 0,0.79297 0.16797,1.39062 0.5,1.79297 0.33203,0.39062 0.73047,0.58203 1.1875,0.58203 0.45703,0 0.84375,-0.1875 1.16797,-0.5625 0.33203,-0.375 0.5,-0.94531 0.5,-1.72656 0,-0.84375 -0.16797,-1.46875 -0.5,-1.875 -0.33594,-0.40235 -0.74219,-0.60547 -1.21094,-0.60547 -0.47266,0 -0.86719,0.19922 -1.1875,0.58203 -0.30469,0.39062 -0.45703,0.99609 -0.45703,1.8125 z m 0,0"
     id="path166" />
  <path
     style="fill:#000000;fill-opacity:1;fill-rule:nonzero;stroke:none"
     d="m 242.05859,324.70703 v -6.23047 h 0.9375 v 0.875 c 0.19141,-0.30078 0.44922,-0.54687 0.76953,-0.72656 0.33594,-0.17969 0.71094,-0.27344 1.125,-0.27344 0.46094,0 0.83594,0.10156 1.125,0.29297 0.29297,0.18359 0.5,0.44922 0.625,0.79297 0.5,-0.71875 1.13672,-1.08594 1.91797,-1.08594 0.625,0 1.10547,0.17969 1.4375,0.52344 0.33203,0.33203 0.5,0.85156 0.5,1.5625 v 4.26953 h -1.0625 v -3.91797 c 0,-0.42578 -0.0352,-0.73437 -0.10547,-0.91406 -0.0547,-0.17969 -0.17578,-0.32422 -0.35156,-0.4375 -0.18359,-0.125 -0.39844,-0.1875 -0.64844,-0.1875 -0.42968,0 -0.78906,0.14453 -1.08203,0.4375 -0.29297,0.28906 -0.4375,0.75781 -0.4375,1.39453 v 3.625 h -1.0625 v -4.04297 c 0,-0.46875 -0.082,-0.82031 -0.25,-1.0625 -0.16797,-0.23437 -0.44922,-0.35156 -0.83203,-0.35156 -0.30859,0 -0.58594,0.082 -0.83594,0.25 -0.25,0.15625 -0.42968,0.38281 -0.53906,0.6875 -0.11719,0.28906 -0.16797,0.72266 -0.16797,1.28906 v 3.23047 z m 0,0"
     id="path167" />
  <path
     style="fill:#000000;fill-opacity:1;fill-rule:nonzero;stroke:none"
     d="m 256.13672,324.70703 v -0.91797 c -0.48828,0.71094 -1.14453,1.0625 -1.97656,1.0625 -0.36719,0 -0.70313,-0.0703 -1.02344,-0.20703 -0.32031,-0.15234 -0.5625,-0.33203 -0.72656,-0.54297 -0.15625,-0.20703 -0.26172,-0.46094 -0.3125,-0.76953 -0.043,-0.20703 -0.0625,-0.54297 -0.0625,-1 v -3.85547 h 1.03906 v 3.46094 c 0,0.55469 0.0273,0.92578 0.0859,1.10156 0.0508,0.28125 0.1875,0.5 0.39453,0.66797 0.21875,0.15625 0.48828,0.23047 0.8125,0.23047 0.3164,0 0.61328,-0.0742 0.89453,-0.23047 0.27734,-0.16797 0.46875,-0.38672 0.58594,-0.66797 0.10937,-0.27344 0.16406,-0.6875 0.16406,-1.22656 v -3.33594 h 1.0625 v 6.23047 z m 0,0"
     id="path168" />
  <path
     style="fill:#000000;fill-opacity:1;fill-rule:nonzero;stroke:none"
     d="M 258.70703,324.70703 V 316.125 H 259.75 v 8.58203 z m 0,0"
     id="path169" />
  <path
     style="fill:#000000;fill-opacity:1;fill-rule:nonzero;stroke:none"
     d="m 263.70703,323.76953 0.14844,0.91797 c -0.3086,0.0664 -0.57422,0.10156 -0.79297,0.10156 -0.39063,0 -0.6875,-0.0625 -0.89453,-0.1875 -0.21094,-0.125 -0.36719,-0.28125 -0.46094,-0.47656 -0.082,-0.19531 -0.125,-0.60547 -0.125,-1.23047 v -3.58203 h -0.76953 v -0.83594 h 0.76953 v -1.53906 l 1.0625,-0.625 v 2.16406 h 1.0625 v 0.83594 h -1.0625 v 3.625 c 0,0.30469 0.0117,0.5 0.043,0.58203 0.043,0.082 0.10547,0.15625 0.1875,0.20703 0.082,0.0586 0.19922,0.0859 0.35547,0.0859 0.125,0 0.28125,-0.0117 0.47656,-0.043 z m 0,0"
     id="path170" />
  <path
     style="fill:#000000;fill-opacity:1;fill-rule:nonzero;stroke:none"
     d="M 264.73047,317.33203 V 316.125 h 1.0625 v 1.20703 z m 0,7.375 v -6.23047 h 1.0625 v 6.23047 z m 0,0"
     id="path171" />
  <path
     style="fill:#000000;fill-opacity:1;fill-rule:nonzero;stroke:none"
     d="m 266.98047,322.125 v -1.0625 h 3.25 v 1.0625 z m 0,0"
     id="path172" />
  <path
     style="fill:#000000;fill-opacity:1;fill-rule:nonzero;stroke:none"
     d="M 271.39062,324.70703 V 316.125 h 1.0625 v 3.08203 c 0.48438,-0.56641 1.10547,-0.85547 1.85547,-0.85547 0.45703,0 0.85547,0.0937 1.1875,0.27344 0.34375,0.17969 0.58985,0.42969 0.73047,0.75 0.14844,0.32031 0.22656,0.78516 0.22656,1.39453 v 3.9375 h -1.03906 v -3.9375 c 0,-0.52734 -0.12109,-0.90625 -0.35547,-1.14453 -0.22265,-0.25 -0.54297,-0.375 -0.95703,-0.375 -0.32422,0 -0.62109,0.082 -0.89844,0.25 -0.28125,0.15625 -0.47265,0.36719 -0.58203,0.64453 -0.11328,0.28125 -0.16797,0.66797 -0.16797,1.16797 v 3.39453 z m 0,0"
     id="path173" />
  <path
     style="fill:#000000;fill-opacity:1;fill-rule:nonzero;stroke:none"
     d="m 282.31641,322.70703 1.10546,0.125 c -0.18359,0.64063 -0.51171,1.14063 -0.98046,1.5 -0.45704,0.34766 -1.05079,0.51953 -1.76954,0.51953 -0.90625,0 -1.625,-0.27344 -2.16796,-0.83203 -0.53125,-0.56641 -0.79297,-1.35937 -0.79297,-2.375 0,-1.04297 0.27343,-1.84375 0.8125,-2.41797 0.54297,-0.58203 1.24218,-0.875 2.10547,-0.875 0.83203,0 1.5039,0.28906 2.01953,0.85547 0.52734,0.55859 0.79297,1.34766 0.79297,2.375 0,0.0742 0,0.16797 0,0.29297 h -4.64454 c 0.0391,0.67969 0.23438,1.20312 0.58204,1.5625 0.34375,0.36328 0.78125,0.53906 1.3125,0.53906 0.38671,0 0.71484,-0.0937 0.98046,-0.28906 0.27344,-0.21094 0.48829,-0.53125 0.64454,-0.98047 z M 278.85937,321 h 3.47657 c -0.0391,-0.52734 -0.17578,-0.92188 -0.39453,-1.1875 -0.33204,-0.40234 -0.76954,-0.60547 -1.3125,-0.60547 -0.48829,0 -0.89454,0.16797 -1.23047,0.5 -0.32032,0.32422 -0.5,0.75 -0.53907,1.29297 z m 0,0"
     id="path174" />
  <path
     style="fill:#000000;fill-opacity:1;fill-rule:nonzero;stroke:none"
     d="m 288.80078,323.9375 c -0.39062,0.33203 -0.76562,0.57031 -1.125,0.70703 -0.36328,0.13672 -0.75,0.20703 -1.16406,0.20703 -0.6836,0 -1.21094,-0.16406 -1.58594,-0.5 -0.36328,-0.33203 -0.53906,-0.75781 -0.53906,-1.28906 0,-0.30469 0.0664,-0.58594 0.20703,-0.83594 0.13672,-0.25 0.31641,-0.44531 0.54297,-0.60156 0.21875,-0.15234 0.46875,-0.27344 0.75,-0.35547 0.20703,-0.043 0.51953,-0.0898 0.9375,-0.14453 0.85937,-0.0937 1.48828,-0.21875 1.89453,-0.375 0,-0.13672 0,-0.23047 0,-0.27344 0,-0.42578 -0.0977,-0.72656 -0.29297,-0.89453 -0.28125,-0.25 -0.67969,-0.375 -1.20703,-0.375 -0.5,0 -0.87109,0.0937 -1.10547,0.26953 -0.23828,0.16797 -0.41016,0.47656 -0.51953,0.91797 l -1.01953,-0.125 c 0.082,-0.44141 0.22656,-0.79687 0.4375,-1.0625 0.21875,-0.27734 0.53125,-0.48437 0.9375,-0.625 0.41406,-0.15234 0.88281,-0.23047 1.41406,-0.23047 0.54297,0 0.96875,0.0625 1.29297,0.1875 0.33203,0.125 0.57422,0.28906 0.73047,0.48047 0.16406,0.18359 0.27344,0.41797 0.33203,0.70703 0.043,0.1836 0.0625,0.5 0.0625,0.96094 v 1.41406 c 0,0.97656 0.0195,1.59375 0.0625,1.85547 0.043,0.26563 0.12891,0.51563 0.26953,0.75 h -1.10156 c -0.11719,-0.21875 -0.1836,-0.48047 -0.21094,-0.76953 z m -0.082,-2.35547 c -0.39063,0.15625 -0.96875,0.28516 -1.73047,0.39453 -0.42969,0.0742 -0.73828,0.14844 -0.91406,0.23047 -0.1836,0.0742 -0.32422,0.18359 -0.41797,0.33203 -0.0977,0.15625 -0.14453,0.32422 -0.14453,0.5 0,0.28125 0.10156,0.51563 0.3125,0.71094 0.20703,0.17969 0.51953,0.26953 0.9375,0.26953 0.39844,0 0.75781,-0.0898 1.08203,-0.26953 0.31641,-0.17969 0.55078,-0.42188 0.70703,-0.73047 0.10938,-0.23437 0.16797,-0.58203 0.16797,-1.04297 z m 0,0"
     id="path175" />
  <path
     style="fill:#000000;fill-opacity:1;fill-rule:nonzero;stroke:none"
     d="m 295.45703,324.70703 v -0.79297 c -0.40625,0.625 -0.99219,0.9375 -1.75,0.9375 -0.49219,0 -0.9375,-0.14062 -1.35547,-0.41406 -0.41797,-0.27734 -0.74609,-0.65625 -0.98047,-1.14844 -0.22265,-0.48437 -0.33203,-1.04687 -0.33203,-1.6875 0,-0.625 0.10547,-1.1875 0.3125,-1.6875 0.20703,-0.50781 0.51172,-0.89844 0.91797,-1.16406 0.41406,-0.26172 0.87891,-0.39844 1.39453,-0.39844 0.375,0 0.70703,0.0781 1,0.23047 0.29297,0.15625 0.52735,0.36328 0.70703,0.625 V 316.125 h 1.0625 v 8.58203 z m -3.33594,-3.10547 c 0,0.79297 0.16797,1.39063 0.5,1.79297 0.33594,0.39063 0.73047,0.58203 1.1875,0.58203 0.46094,0 0.84375,-0.1875 1.16797,-0.5625 0.33203,-0.375 0.5,-0.94531 0.5,-1.72656 0,-0.84375 -0.16797,-1.46875 -0.5,-1.875 -0.33203,-0.40234 -0.73828,-0.60547 -1.20703,-0.60547 -0.47656,0 -0.87109,0.19922 -1.1875,0.58203 -0.30859,0.39063 -0.46094,0.9961 -0.46094,1.8125 z m 0,0"
     id="path176" />
  <path
     style="fill:#000000;fill-opacity:1;fill-rule:nonzero;stroke:none"
     d="m 251.11719,337.66016 c -0.39063,0.33593 -0.76563,0.57421 -1.125,0.71093 -0.36719,0.13282 -0.75,0.20703 -1.16797,0.20703 -0.6836,0 -1.20703,-0.16796 -1.58203,-0.5 -0.36719,-0.33203 -0.54297,-0.76171 -0.54297,-1.29296 0,-0.30079 0.0664,-0.58204 0.20703,-0.83204 0.13672,-0.25 0.32031,-0.44921 0.54297,-0.60546 0.21875,-0.14844 0.46875,-0.26954 0.75,-0.35157 0.20703,-0.043 0.51953,-0.0898 0.9375,-0.14843 0.85937,-0.0937 1.48828,-0.21875 1.89453,-0.375 0,-0.13282 0,-0.22657 0,-0.26954 0,-0.42578 -0.0977,-0.73046 -0.28906,-0.89453 -0.28125,-0.25 -0.6836,-0.375 -1.21094,-0.375 -0.5,0 -0.86719,0.0937 -1.10156,0.26953 -0.24219,0.16797 -0.41407,0.47266 -0.52344,0.91797 l -1.01953,-0.125 c 0.082,-0.44531 0.23047,-0.79687 0.4375,-1.0625 0.21875,-0.27734 0.53125,-0.48437 0.9375,-0.625 0.41797,-0.15234 0.88672,-0.23047 1.41797,-0.23047 0.53906,0 0.96875,0.0625 1.28906,0.1875 0.33594,0.125 0.57422,0.28516 0.73047,0.48047 0.16797,0.17969 0.27734,0.41407 0.33203,0.70703 0.043,0.1836 0.0625,0.5 0.0625,0.95704 v 1.41796 c 0,0.97266 0.0234,1.59375 0.0625,1.85547 0.043,0.26563 0.13281,0.51563 0.27344,0.75 h -1.10547 c -0.11328,-0.21875 -0.1836,-0.48047 -0.20703,-0.77343 z m -0.0859,-2.35157 c -0.39063,0.15625 -0.96875,0.28516 -1.72656,0.39453 -0.4336,0.0742 -0.74219,0.14454 -0.91797,0.23047 -0.1836,0.0703 -0.32422,0.17969 -0.41797,0.33203 -0.0977,0.15625 -0.14453,0.32422 -0.14453,0.5 0,0.28125 0.10547,0.51563 0.3125,0.70704 0.20703,0.18359 0.51953,0.27343 0.9375,0.27343 0.40234,0 0.76172,-0.0898 1.08203,-0.27343 0.32031,-0.17579 0.55469,-0.42188 0.71094,-0.72657 0.10937,-0.23437 0.16406,-0.58593 0.16406,-1.04297 z m 0,0"
     id="path177" />
  <path
     style="fill:#000000;fill-opacity:1;fill-rule:nonzero;stroke:none"
     d="m 256.03906,337.49609 0.14844,0.91407 c -0.30859,0.0703 -0.57422,0.10546 -0.79297,0.10546 -0.39062,0 -0.6875,-0.0625 -0.89453,-0.1875 -0.21094,-0.125 -0.36719,-0.28125 -0.46094,-0.48046 -0.082,-0.19141 -0.125,-0.60157 -0.125,-1.22657 v -3.58593 h -0.76953 v -0.83204 h 0.76953 v -1.54296 l 1.0625,-0.625 v 2.16796 h 1.0625 v 0.83204 h -1.0625 v 3.625 c 0,0.30859 0.0117,0.5 0.043,0.58593 0.043,0.082 0.10547,0.15625 0.1875,0.20703 0.082,0.0586 0.19922,0.082 0.35547,0.082 0.125,0 0.28125,-0.008 0.47656,-0.0391 z m 0,0"
     id="path178" />
  <path
     style="fill:#000000;fill-opacity:1;fill-rule:nonzero;stroke:none"
     d="m 259.37891,337.49609 0.14453,0.91407 c -0.30469,0.0703 -0.57032,0.10546 -0.78907,0.10546 -0.39062,0 -0.6875,-0.0625 -0.89843,-0.1875 -0.20703,-0.125 -0.36328,-0.28125 -0.45703,-0.48046 -0.082,-0.19141 -0.125,-0.60157 -0.125,-1.22657 v -3.58593 h -0.76954 v -0.83204 h 0.76954 v -1.54296 l 1.0625,-0.625 v 2.16796 h 1.0625 v 0.83204 h -1.0625 v 3.625 c 0,0.30859 0.0117,0.5 0.043,0.58593 0.0391,0.082 0.10157,0.15625 0.1875,0.20703 0.082,0.0586 0.19532,0.082 0.35157,0.082 0.125,0 0.28125,-0.008 0.48047,-0.0391 z m 0,0"
     id="path179" />
  <path
     style="fill:#000000;fill-opacity:1;fill-rule:nonzero;stroke:none"
     d="m 264.65625,336.43359 1.10156,0.125 c -0.17969,0.64063 -0.50781,1.14063 -0.97656,1.5 -0.46094,0.34766 -1.05469,0.51953 -1.77344,0.51953 -0.90625,0 -1.625,-0.27734 -2.16406,-0.83203 -0.53125,-0.57031 -0.79297,-1.35937 -0.79297,-2.375 0,-1.04297 0.26953,-1.84375 0.8125,-2.41797 0.54297,-0.58203 1.23828,-0.875 2.10547,-0.875 0.83203,0 1.50391,0.28516 2.01953,0.85547 0.52734,0.55469 0.79297,1.34766 0.79297,2.375 0,0.0703 0,0.16407 0,0.28907 h -4.64844 c 0.043,0.68359 0.23438,1.20312 0.58594,1.5625 0.34375,0.36718 0.78125,0.54296 1.3125,0.54296 0.38281,0 0.71094,-0.0937 0.97656,-0.29296 0.27735,-0.20704 0.49219,-0.53125 0.64844,-0.97657 z m -3.46094,-1.71093 h 3.48047 c -0.043,-0.52344 -0.17578,-0.92188 -0.39453,-1.1875 -0.33594,-0.39844 -0.77344,-0.60157 -1.3125,-0.60157 -0.49219,0 -0.89844,0.16407 -1.23047,0.5 -0.32422,0.32032 -0.5,0.75 -0.54297,1.28907 z m 0,0"
     id="path180" />
  <path
     style="fill:#000000;fill-opacity:1;fill-rule:nonzero;stroke:none"
     d="m 267.07812,338.43359 v -6.23047 h 0.96094 v 0.89454 c 0.44141,-0.67579 1.10156,-1.01954 1.97656,-1.01954 0.375,0 0.71485,0.0742 1.02344,0.20704 0.31641,0.125 0.55078,0.30468 0.70703,0.52343 0.15235,0.20703 0.26172,0.46875 0.33203,0.76953 0.043,0.19922 0.0625,0.53516 0.0625,1.01954 v 3.83593 h -1.0625 v -3.79297 c 0,-0.42578 -0.0391,-0.75 -0.125,-0.95703 -0.082,-0.21093 -0.22656,-0.375 -0.4375,-0.5 -0.20703,-0.13672 -0.45312,-0.21093 -0.72656,-0.21093 -0.44922,0 -0.83594,0.14843 -1.16797,0.4375 -0.32422,0.28125 -0.48047,0.82421 -0.48047,1.625 v 3.39843 z m 0,0"
     id="path181" />
  <path
     style="fill:#000000;fill-opacity:1;fill-rule:nonzero;stroke:none"
     d="m 276.06641,337.49609 0.14453,0.91407 c -0.30469,0.0703 -0.57032,0.10546 -0.78907,0.10546 -0.39062,0 -0.6875,-0.0625 -0.89843,-0.1875 -0.20703,-0.125 -0.36328,-0.28125 -0.45703,-0.48046 -0.082,-0.19141 -0.125,-0.60157 -0.125,-1.22657 v -3.58593 h -0.76954 v -0.83204 h 0.76954 v -1.54296 l 1.0625,-0.625 v 2.16796 h 1.0625 v 0.83204 h -1.0625 v 3.625 c 0,0.30859 0.0117,0.5 0.043,0.58593 0.0391,0.082 0.10157,0.15625 0.1875,0.20703 0.082,0.0586 0.19532,0.082 0.35157,0.082 0.125,0 0.28125,-0.008 0.48047,-0.0391 z m 0,0"
     id="path182" />
  <path
     style="fill:#000000;fill-opacity:1;fill-rule:nonzero;stroke:none"
     d="m 277.09375,331.05859 v -1.21093 h 1.0625 v 1.21093 z m 0,7.375 v -6.23047 h 1.0625 v 6.23047 z m 0,0"
     id="path183" />
  <path
     style="fill:#000000;fill-opacity:1;fill-rule:nonzero;stroke:none"
     d="m 279.36328,335.32812 c 0,-1.15234 0.31641,-2.0039 0.95703,-2.5625 0.54297,-0.45703 1.19531,-0.6875 1.96094,-0.6875 0.85937,0 1.5625,0.28125 2.10156,0.83204 0.54297,0.55859 0.8125,1.32812 0.8125,2.3125 0,0.80859 -0.125,1.4375 -0.375,1.89843 -0.23828,0.45703 -0.58203,0.82032 -1.03906,1.08203 -0.46094,0.25 -0.96094,0.375 -1.5,0.375 -0.875,0 -1.58594,-0.27734 -2.125,-0.83203 -0.53125,-0.57031 -0.79297,-1.375 -0.79297,-2.41797 z m 1.08203,0 c 0,0.79297 0.17188,1.39063 0.52344,1.79297 0.34375,0.39063 0.78125,0.58203 1.3125,0.58203 0.52344,0 0.96094,-0.1914 1.3125,-0.58203 0.34375,-0.40234 0.51953,-1.01172 0.51953,-1.83593 0,-0.75782 -0.17578,-1.34375 -0.51953,-1.75 -0.35156,-0.39844 -0.78906,-0.60157 -1.3125,-0.60157 -0.53125,0 -0.96875,0.20313 -1.3125,0.60157 -0.35156,0.39062 -0.52344,0.99218 -0.52344,1.79296 z m 0,0"
     id="path184" />
  <path
     style="fill:#000000;fill-opacity:1;fill-rule:nonzero;stroke:none"
     d="m 286.43359,338.43359 v -6.23047 h 0.95703 v 0.89454 c 0.44532,-0.67579 1.10547,-1.01954 1.98047,-1.01954 0.375,0 0.71485,0.0742 1.01953,0.20704 0.32032,0.125 0.55469,0.30468 0.71094,0.52343 0.14844,0.20703 0.25781,0.46875 0.33203,0.76953 0.043,0.19922 0.0625,0.53516 0.0625,1.01954 v 3.83593 h -1.0625 v -3.79297 c 0,-0.42578 -0.043,-0.75 -0.125,-0.95703 -0.082,-0.21093 -0.23047,-0.375 -0.4375,-0.5 -0.20703,-0.13672 -0.45312,-0.21093 -0.73047,-0.21093 -0.44531,0 -0.83203,0.14843 -1.16406,0.4375 -0.32422,0.28125 -0.48047,0.82421 -0.48047,1.625 v 3.39843 z m 0,0"
     id="path185" />
  <path
     style="fill:none;stroke:#000000;stroke-width:1.33333;stroke-linecap:round;stroke-linejoin:round;stroke-miterlimit:10;stroke-opacity:1"
     d="m 227.81229,263.15613 h 82.93358 v 21.33202 h -82.93358 z m 0,0"
     id="path186" />
  <path
     style="fill:#000000;fill-opacity:1;fill-rule:nonzero;stroke:none"
     d="m 237.57812,277.625 3.3125,-8.58203 h 1.20704 l 3.52343,8.58203 h -1.29297 l -1,-2.60156 h -3.60546 l -0.9375,2.60156 z m 2.48047,-3.51953 h 2.91407 l -0.89454,-2.39453 c -0.28125,-0.71875 -0.48046,-1.3125 -0.60546,-1.77344 -0.11329,0.55859 -0.26954,1.10547 -0.47657,1.64844 z m 0,0"
     id="path187" />
  <path
     style="fill:#000000;fill-opacity:1;fill-rule:nonzero;stroke:none"
     d="m 250.4375,277.625 v -0.78906 c -0.40625,0.625 -0.99219,0.9375 -1.75,0.9375 -0.49219,0 -0.9375,-0.14063 -1.35547,-0.41797 -0.41797,-0.27735 -0.74609,-0.65625 -0.98047,-1.14453 -0.22265,-0.48438 -0.33203,-1.04688 -0.33203,-1.6875 0,-0.625 0.10547,-1.1875 0.3125,-1.6875 0.20703,-0.51172 0.51172,-0.90235 0.91797,-1.16797 0.41406,-0.26172 0.87891,-0.39453 1.39453,-0.39453 0.375,0 0.70703,0.0781 1,0.22656 0.29297,0.15625 0.52734,0.36719 0.70703,0.625 v -3.08203 h 1.0625 v 8.58203 z m -3.33594,-3.10156 c 0,0.78906 0.16797,1.39062 0.5,1.78906 0.33594,0.39062 0.73047,0.58594 1.1875,0.58594 0.46094,0 0.84375,-0.1875 1.16797,-0.5625 0.33203,-0.375 0.5,-0.94922 0.5,-1.73047 0,-0.84375 -0.16797,-1.46875 -0.5,-1.875 -0.33203,-0.40235 -0.73828,-0.60547 -1.20703,-0.60547 -0.47656,0 -0.87109,0.19922 -1.1875,0.58594 -0.30859,0.39062 -0.46094,0.99218 -0.46094,1.8125 z m 0,0"
     id="path188" />
  <path
     style="fill:#000000;fill-opacity:1;fill-rule:nonzero;stroke:none"
     d="m 257.10937,277.625 v -0.78906 c -0.40625,0.625 -0.98828,0.9375 -1.75,0.9375 -0.48828,0 -0.9375,-0.14063 -1.35156,-0.41797 -0.41797,-0.27735 -0.74609,-0.65625 -0.98047,-1.14453 -0.22265,-0.48438 -0.33203,-1.04688 -0.33203,-1.6875 0,-0.625 0.10156,-1.1875 0.3125,-1.6875 0.20703,-0.51172 0.50781,-0.90235 0.91406,-1.16797 0.41797,-0.26172 0.88282,-0.39453 1.39844,-0.39453 0.375,0 0.70703,0.0781 1,0.22656 0.28906,0.15625 0.52344,0.36719 0.70703,0.625 v -3.08203 h 1.0625 v 8.58203 z m -3.33203,-3.10156 c 0,0.78906 0.16797,1.39062 0.5,1.78906 0.33203,0.39062 0.73047,0.58594 1.1875,0.58594 0.45703,0 0.84375,-0.1875 1.16797,-0.5625 0.33203,-0.375 0.5,-0.94922 0.5,-1.73047 0,-0.84375 -0.16797,-1.46875 -0.5,-1.875 -0.33594,-0.40235 -0.74219,-0.60547 -1.21094,-0.60547 -0.47265,0 -0.86718,0.19922 -1.1875,0.58594 -0.30468,0.39062 -0.45703,0.99218 -0.45703,1.8125 z m 0,0"
     id="path189" />
  <path
     style="fill:#000000;fill-opacity:1;fill-rule:nonzero;stroke:none"
     d="m 267.99219,276.60547 c -0.34766,0.39062 -0.72657,0.68359 -1.14453,0.875 -0.40625,0.1914 -0.84766,0.29297 -1.33204,0.29297 -0.875,0 -1.57421,-0.29688 -2.08593,-0.89844 -0.41407,-0.48438 -0.625,-1.02344 -0.625,-1.625 0,-0.52344 0.16797,-1 0.5,-1.41406 0.34375,-0.42969 0.85937,-0.8125 1.54297,-1.14844 -0.39063,-0.44141 -0.64454,-0.80078 -0.76954,-1.08203 -0.125,-0.27735 -0.1875,-0.54297 -0.1875,-0.79297 0,-0.52344 0.19532,-0.97656 0.60157,-1.35156 0.40234,-0.375 0.90625,-0.5625 1.52343,-0.5625 0.58204,0 1.0625,0.17968 1.4375,0.53906 0.375,0.35156 0.5625,0.78125 0.5625,1.29297 0,0.80859 -0.54296,1.5 -1.625,2.08203 l 1.53907,1.96094 c 0.17968,-0.33594 0.32031,-0.73047 0.41797,-1.1875 l 1.08203,0.22656 c -0.17969,0.75 -0.42969,1.37109 -0.75,1.85547 0.38672,0.53125 0.83593,0.96875 1.33593,1.3125 l -0.71093,0.85547 c -0.42969,-0.27735 -0.86719,-0.6875 -1.3125,-1.23047 z m -2.14453,-4.48047 c 0.45703,-0.25781 0.75,-0.48828 0.875,-0.6875 0.13671,-0.20703 0.20703,-0.4375 0.20703,-0.6875 0,-0.28906 -0.0977,-0.52344 -0.28907,-0.70703 -0.18359,-0.19141 -0.41406,-0.29297 -0.6875,-0.29297 -0.28125,0 -0.51562,0.10156 -0.71093,0.29297 -0.17969,0.18359 -0.26953,0.40625 -0.26953,0.66797 0,0.125 0.0273,0.26562 0.082,0.41406 0.0703,0.14062 0.17187,0.29297 0.3125,0.46094 z m 1.48046,3.64844 -1.9375,-2.39844 c -0.57421,0.35156 -0.96093,0.66797 -1.16796,0.96094 -0.19922,0.28906 -0.29297,0.57812 -0.29297,0.85156 0,0.35156 0.13672,0.71094 0.41797,1.08594 0.27734,0.375 0.67187,0.5625 1.1875,0.5625 0.3164,0 0.64453,-0.0937 0.98046,-0.29297 0.33204,-0.19141 0.60157,-0.44922 0.8125,-0.76953 z m 0,0"
     id="path190" />
  <path
     style="fill:#000000;fill-opacity:1;fill-rule:nonzero;stroke:none"
     d="m 274.41406,277.625 v -6.22656 h 0.96094 v 0.89453 c 0.44141,-0.67578 1.10156,-1.01953 1.97656,-1.01953 0.375,0 0.71485,0.0703 1.02344,0.20703 0.31641,0.125 0.55078,0.30078 0.70703,0.51953 0.15234,0.21094 0.26172,0.46875 0.33203,0.77344 0.043,0.19531 0.0625,0.53515 0.0625,1.01953 v 3.83203 h -1.0625 v -3.78906 c 0,-0.42969 -0.0391,-0.75 -0.125,-0.96094 -0.082,-0.20703 -0.22656,-0.375 -0.4375,-0.5 -0.20703,-0.13281 -0.45312,-0.20703 -0.72656,-0.20703 -0.44922,0 -0.83594,0.14453 -1.16797,0.4375 -0.32422,0.28125 -0.48047,0.82422 -0.48047,1.625 v 3.39453 z m 0,0"
     id="path191" />
  <path
     style="fill:#000000;fill-opacity:1;fill-rule:nonzero;stroke:none"
     d="m 280.69141,274.52344 c 0,-1.15235 0.32031,-2.00782 0.96093,-2.5625 0.53907,-0.46094 1.19141,-0.6875 1.95703,-0.6875 0.85938,0 1.5625,0.28125 2.10547,0.83203 0.53907,0.55859 0.8125,1.32812 0.8125,2.3125 0,0.80859 -0.125,1.4375 -0.375,1.89453 -0.24218,0.46094 -0.58593,0.82422 -1.04297,1.08594 -0.45703,0.25 -0.95703,0.375 -1.5,0.375 -0.875,0 -1.58203,-0.27735 -2.125,-0.83594 -0.53125,-0.56641 -0.79296,-1.375 -0.79296,-2.41406 z m 1.08593,0 c 0,0.78906 0.17188,1.39062 0.51953,1.78906 0.34375,0.39062 0.78125,0.58594 1.3125,0.58594 0.52735,0 0.96485,-0.19532 1.3125,-0.58594 0.34375,-0.39844 0.51954,-1.00781 0.51954,-1.83203 0,-0.76172 -0.17579,-1.34375 -0.51954,-1.75 -0.34765,-0.40235 -0.78515,-0.60547 -1.3125,-0.60547 -0.53125,0 -0.96875,0.20312 -1.3125,0.60547 -0.34765,0.39062 -0.51953,0.98828 -0.51953,1.79297 z m 0,0"
     id="path192" />
  <path
     style="fill:#000000;fill-opacity:1;fill-rule:nonzero;stroke:none"
     d="m 287.74219,277.625 v -6.22656 h 0.95703 v 0.95703 c 0.23437,-0.44141 0.46094,-0.73438 0.66797,-0.875 0.20703,-0.13672 0.4375,-0.20703 0.6875,-0.20703 0.34375,0 0.70703,0.11328 1.08203,0.33203 l -0.375,0.98047 c -0.25,-0.15235 -0.50781,-0.23047 -0.76953,-0.23047 -0.22266,0 -0.4336,0.0742 -0.625,0.20703 -0.1836,0.14062 -0.3125,0.33594 -0.39453,0.58594 -0.11719,0.375 -0.16797,0.78515 -0.16797,1.22656 v 3.25 z m 0,0"
     id="path193" />
  <path
     style="fill:#000000;fill-opacity:1;fill-rule:nonzero;stroke:none"
     d="m 291.75781,277.625 v -6.22656 h 0.9375 v 0.875 c 0.19531,-0.30469 0.44922,-0.54688 0.77344,-0.73047 0.33203,-0.17578 0.70703,-0.26953 1.125,-0.26953 0.45703,0 0.83203,0.0976 1.125,0.28906 0.28906,0.18359 0.5,0.44922 0.625,0.79297 0.5,-0.71875 1.13281,-1.08203 1.91406,-1.08203 0.625,0 1.10547,0.17578 1.4375,0.51953 0.33594,0.33203 0.5,0.85547 0.5,1.5625 v 4.26953 h -1.0625 v -3.91406 c 0,-0.42969 -0.0351,-0.73438 -0.10156,-0.91797 -0.0586,-0.17578 -0.17969,-0.32422 -0.35547,-0.4375 -0.18359,-0.125 -0.39453,-0.1875 -0.64453,-0.1875 -0.43359,0 -0.79297,0.14453 -1.08594,0.4375 -0.28906,0.29297 -0.4375,0.76172 -0.4375,1.39453 v 3.625 h -1.0625 v -4.03906 c 0,-0.46875 -0.082,-0.82422 -0.25,-1.0625 -0.16406,-0.23438 -0.44531,-0.35547 -0.83203,-0.35547 -0.30859,0 -0.58203,0.082 -0.83203,0.25 -0.25,0.15625 -0.43359,0.38672 -0.54297,0.6875 -0.11328,0.29297 -0.16797,0.72265 -0.16797,1.29297 v 3.22656 z m 0,0"
     id="path194" />
  <path
     style="fill:none;stroke:#000000;stroke-width:1.33333;stroke-linecap:round;stroke-linejoin:round;stroke-miterlimit:10;stroke-opacity:1"
     d="m 227.81229,424.80062 h 82.93358 v 21.33593 h -82.93358 z m 0,0"
     id="path195" />
  <path
     style="fill:#000000;fill-opacity:1;fill-rule:nonzero;stroke:none"
     d="m 239.88281,439.26953 v -8.58203 h 6.21094 v 1 h -5.08594 v 2.64453 h 4.75 v 1 h -4.75 V 438.25 h 5.27344 v 1.01953 z m 0,0"
     id="path196" />
  <path
     style="fill:#000000;fill-opacity:1;fill-rule:nonzero;stroke:none"
     d="m 247.72266,439.26953 v -6.22656 h 0.9375 v 0.875 c 0.1914,-0.30469 0.44531,-0.54688 0.76953,-0.73047 0.33203,-0.17578 0.70703,-0.26953 1.125,-0.26953 0.45703,0 0.83203,0.0976 1.125,0.28906 0.29297,0.18359 0.5,0.44922 0.625,0.79297 0.5,-0.71875 1.13672,-1.08203 1.91797,-1.08203 0.625,0 1.10156,0.17578 1.4375,0.51953 0.33203,0.33203 0.5,0.85547 0.5,1.5625 v 4.26953 h -1.0625 v -3.91406 c 0,-0.42969 -0.0391,-0.73438 -0.10547,-0.91797 -0.0586,-0.17578 -0.17578,-0.32422 -0.35547,-0.4375 -0.17969,-0.125 -0.39453,-0.1875 -0.64453,-0.1875 -0.4336,0 -0.79297,0.14453 -1.08203,0.4375 -0.29297,0.29297 -0.4375,0.76172 -0.4375,1.39453 v 3.625 h -1.0625 v -4.03906 c 0,-0.46875 -0.0859,-0.82422 -0.25,-1.0625 -0.16797,-0.23438 -0.44922,-0.35547 -0.83594,-0.35547 -0.30469,0 -0.58203,0.082 -0.83203,0.25 -0.25,0.15625 -0.4336,0.38672 -0.54297,0.6875 -0.11328,0.29297 -0.16406,0.72266 -0.16406,1.29297 v 3.22656 z m 0,0"
     id="path197" />
  <path
     style="fill:#000000;fill-opacity:1;fill-rule:nonzero;stroke:none"
     d="m 258.69531,439.26953 h -0.97656 v -8.58203 h 1.03906 v 3.0625 c 0.44531,-0.55078 1.01172,-0.83203 1.71094,-0.83203 0.38281,0 0.75,0.0781 1.08203,0.22656 0.34375,0.15625 0.62891,0.37109 0.85547,0.64844 0.21875,0.28125 0.39453,0.61719 0.51953,1.01953 0.125,0.39062 0.1875,0.80859 0.1875,1.25 0,1.07422 -0.26562,1.89453 -0.79297,2.48047 -0.53125,0.58203 -1.16015,0.875 -1.89453,0.875 -0.73828,0 -1.3125,-0.30469 -1.73047,-0.91797 z m -0.0195,-3.16406 c 0,0.75 0.10547,1.28906 0.3125,1.625 0.33203,0.53906 0.77734,0.8125 1.33203,0.8125 0.46875,0 0.875,-0.19922 1.21094,-0.60547 0.33203,-0.40234 0.5,-1 0.5,-1.79297 0,-0.80078 -0.16406,-1.39844 -0.48047,-1.78906 -0.32422,-0.38672 -0.70703,-0.58594 -1.16797,-0.58594 -0.47265,0 -0.875,0.20313 -1.20703,0.60547 -0.33203,0.40625 -0.5,0.98047 -0.5,1.73047 z m 0,0"
     id="path198" />
  <path
     style="fill:#000000;fill-opacity:1;fill-rule:nonzero;stroke:none"
     d="m 268.64062,437.26953 1.10547,0.125 c -0.18359,0.64063 -0.51172,1.14063 -0.98047,1.5 -0.45703,0.35156 -1.05078,0.52344 -1.76953,0.52344 -0.90625,0 -1.625,-0.27735 -2.16797,-0.83594 -0.53125,-0.56641 -0.78906,-1.35937 -0.78906,-2.375 0,-1.03906 0.26953,-1.84375 0.8125,-2.41406 0.53906,-0.58594 1.23828,-0.875 2.10156,-0.875 0.83594,0 1.50782,0.28515 2.02344,0.85156 0.52344,0.55859 0.78906,1.35156 0.78906,2.375 0,0.0742 0,0.16797 0,0.29297 h -4.64453 c 0.043,0.68359 0.23438,1.20312 0.58203,1.5625 0.34375,0.36328 0.78125,0.54297 1.3125,0.54297 0.38672,0 0.71485,-0.0937 0.98047,-0.29297 0.27735,-0.20703 0.48828,-0.53125 0.64453,-0.98047 z m -3.45703,-1.70703 h 3.48047 c -0.043,-0.52734 -0.17969,-0.92188 -0.39844,-1.1875 -0.33203,-0.40234 -0.76953,-0.60547 -1.3125,-0.60547 -0.48828,0 -0.89453,0.16797 -1.22656,0.5 -0.32422,0.32422 -0.5,0.75 -0.54297,1.29297 z m 0,0"
     id="path199" />
  <path
     style="fill:#000000;fill-opacity:1;fill-rule:nonzero;stroke:none"
     d="m 275.10937,439.26953 v -0.78906 c -0.40625,0.625 -0.99218,0.9375 -1.75,0.9375 -0.49218,0 -0.9375,-0.14063 -1.35546,-0.41797 -0.41797,-0.27734 -0.7461,-0.65625 -0.98047,-1.14453 -0.22266,-0.48438 -0.33203,-1.04688 -0.33203,-1.6875 0,-0.625 0.10546,-1.1875 0.3125,-1.6875 0.20703,-0.51172 0.51171,-0.90235 0.91796,-1.16797 0.41407,-0.26172 0.87891,-0.39453 1.39454,-0.39453 0.375,0 0.70703,0.0781 1,0.22656 0.29296,0.15625 0.52734,0.36719 0.70703,0.625 v -3.08203 h 1.0625 v 8.58203 z m -3.33593,-3.10156 c 0,0.78906 0.16797,1.39062 0.5,1.78906 0.33593,0.39063 0.73047,0.58594 1.1875,0.58594 0.46093,0 0.84375,-0.1875 1.16797,-0.5625 0.33203,-0.375 0.5,-0.94922 0.5,-1.73047 0,-0.84375 -0.16797,-1.46875 -0.5,-1.875 -0.33204,-0.40234 -0.73829,-0.60547 -1.20704,-0.60547 -0.47656,0 -0.87109,0.19922 -1.1875,0.58594 -0.30859,0.39062 -0.46093,0.99219 -0.46093,1.8125 z m 0,0"
     id="path200" />
  <path
     style="fill:#000000;fill-opacity:1;fill-rule:nonzero;stroke:none"
     d="m 281.78125,439.26953 v -0.78906 c -0.40625,0.625 -0.98828,0.9375 -1.75,0.9375 -0.48828,0 -0.9375,-0.14063 -1.35156,-0.41797 -0.41797,-0.27734 -0.7461,-0.65625 -0.98047,-1.14453 -0.22266,-0.48438 -0.33203,-1.04688 -0.33203,-1.6875 0,-0.625 0.10156,-1.1875 0.3125,-1.6875 0.20703,-0.51172 0.50781,-0.90235 0.91406,-1.16797 0.41797,-0.26172 0.88281,-0.39453 1.39844,-0.39453 0.375,0 0.70703,0.0781 1,0.22656 0.28906,0.15625 0.52343,0.36719 0.70703,0.625 v -3.08203 h 1.0625 v 8.58203 z m -3.33203,-3.10156 c 0,0.78906 0.16797,1.39062 0.5,1.78906 0.33203,0.39063 0.73047,0.58594 1.1875,0.58594 0.45703,0 0.84375,-0.1875 1.16797,-0.5625 0.33203,-0.375 0.5,-0.94922 0.5,-1.73047 0,-0.84375 -0.16797,-1.46875 -0.5,-1.875 -0.33594,-0.40234 -0.74219,-0.60547 -1.21094,-0.60547 -0.47266,0 -0.86719,0.19922 -1.1875,0.58594 -0.30469,0.39062 -0.45703,0.99219 -0.45703,1.8125 z m 0,0"
     id="path201" />
  <path
     style="fill:#000000;fill-opacity:1;fill-rule:nonzero;stroke:none"
     d="m 284.41406,431.89453 v -1.20703 h 1.0625 v 1.20703 z m 0,7.375 v -6.22656 h 1.0625 v 6.22656 z m 0,0"
     id="path202" />
  <path
     style="fill:#000000;fill-opacity:1;fill-rule:nonzero;stroke:none"
     d="m 287.08203,439.26953 v -6.22656 h 0.95703 v 0.89453 c 0.44531,-0.67578 1.10547,-1.01953 1.98047,-1.01953 0.375,0 0.71484,0.0703 1.01953,0.20703 0.32031,0.125 0.55469,0.30078 0.71094,0.51953 0.14844,0.21094 0.25781,0.46875 0.33203,0.77344 0.043,0.19531 0.0625,0.53515 0.0625,1.01953 v 3.83203 h -1.0625 v -3.78906 c 0,-0.42969 -0.043,-0.75 -0.125,-0.96094 -0.082,-0.20703 -0.23047,-0.375 -0.4375,-0.5 -0.20703,-0.13281 -0.45312,-0.20703 -0.73047,-0.20703 -0.44531,0 -0.83203,0.14453 -1.16406,0.4375 -0.32422,0.28125 -0.48047,0.82422 -0.48047,1.625 v 3.39453 z m 0,0"
     id="path203" />
  <path
     style="fill:#000000;fill-opacity:1;fill-rule:nonzero;stroke:none"
     d="m 293.57031,439.79297 1.01953,0.14453 c 0.043,0.31641 0.15625,0.54687 0.35547,0.6875 0.25781,0.19141 0.625,0.29297 1.08203,0.29297 0.48438,0 0.85938,-0.10156 1.125,-0.29297 0.26172,-0.19922 0.44141,-0.46875 0.54297,-0.8125 0.0508,-0.22266 0.0703,-0.67188 0.0625,-1.35547 -0.46094,0.54297 -1.03125,0.8125 -1.71094,0.8125 -0.86328,0 -1.53125,-0.30078 -2,-0.91406 -0.45703,-0.625 -0.6875,-1.36719 -0.6875,-2.23047 0,-0.59375 0.10547,-1.14453 0.3125,-1.64453 0.21875,-0.5 0.53125,-0.88281 0.9375,-1.14844 0.40235,-0.27344 0.88282,-0.41406 1.4375,-0.41406 0.73438,0 1.33985,0.28906 1.8125,0.875 v -0.75 h 0.98047 v 5.375 c 0,0.96875 -0.10547,1.65625 -0.3125,2.0625 -0.19922,0.39844 -0.51172,0.71875 -0.9375,0.95703 -0.41797,0.23437 -0.9375,0.35547 -1.5625,0.35547 -0.75,0 -1.35547,-0.16797 -1.8125,-0.5 -0.44922,-0.33594 -0.66015,-0.83594 -0.64453,-1.5 z m 0.875,-3.75 c 0,0.82031 0.15625,1.41406 0.47656,1.78906 0.32032,0.375 0.71875,0.5625 1.21094,0.5625 0.48438,0 0.89453,-0.1875 1.22656,-0.5625 0.33594,-0.375 0.5,-0.95703 0.5,-1.75 0,-0.75781 -0.17578,-1.33594 -0.51953,-1.72656 -0.33203,-0.38672 -0.73828,-0.58594 -1.20703,-0.58594 -0.47656,0 -0.875,0.19922 -1.21094,0.58594 -0.32031,0.375 -0.47656,0.9375 -0.47656,1.6875 z m 0,0"
     id="path204" />
  <path
     style="fill:none;stroke:#000000;stroke-width:1.33333;stroke-linecap:round;stroke-linejoin:round;stroke-miterlimit:10;stroke-opacity:1"
     d="m 269.28104,424.80062 v -8.53516"
     id="path205" />
  <path
     style="fill:none;stroke:#000000;stroke-width:1.33333;stroke-linecap:butt;stroke-linejoin:miter;stroke-miterlimit:10;stroke-opacity:1"
     d="m 269.28104,410.93342 v 5.33204 m -2,0 2,-5.33204 2,5.33204"
     id="path206" />
  <path
     style="fill:none;stroke:#000000;stroke-width:1.33333;stroke-linecap:round;stroke-linejoin:round;stroke-miterlimit:10;stroke-opacity:1"
     d="M 269.28104,387.06624 V 352.91782"
     id="path207" />
  <path
     style="fill:none;stroke:#000000;stroke-width:1.33333;stroke-linecap:butt;stroke-linejoin:miter;stroke-miterlimit:10;stroke-opacity:1"
     d="m 269.28104,347.58188 v 5.33594 m -2,0 2,-5.33594 2,5.33594"
     id="path208" />
  <path
     style="fill:none;stroke:#000000;stroke-width:1.33333;stroke-linecap:round;stroke-linejoin:round;stroke-miterlimit:10;stroke-opacity:1"
     d="m 269.28104,296.75377 v -4.39844"
     id="path209" />
  <path
     style="fill:none;stroke:#000000;stroke-width:1.33333;stroke-linecap:butt;stroke-linejoin:miter;stroke-miterlimit:10;stroke-opacity:1"
     d="m 269.28104,287.0194 v 5.33593 m -2,0 2,-5.33593 2,5.33593"
     id="path210" />
  <path
     style="fill:#000000;fill-opacity:1;fill-rule:nonzero;stroke:none"
     d="m 252.71094,478.39844 v -7.58203 h -2.8125 v -1 h 6.78906 v 1 h -2.83203 v 7.58203 z m 0,0"
     id="path211" />
  <path
     style="fill:#000000;fill-opacity:1;fill-rule:nonzero;stroke:none"
     d="m 260.46094,477.62891 c -0.39063,0.33203 -0.76563,0.57421 -1.125,0.70703 -0.36719,0.13672 -0.75,0.21093 -1.16797,0.21093 -0.6836,0 -1.20703,-0.16796 -1.58203,-0.5 -0.36719,-0.33593 -0.54297,-0.76171 -0.54297,-1.29296 0,-0.30079 0.0664,-0.58204 0.20703,-0.83204 0.13672,-0.25 0.32031,-0.44921 0.54297,-0.60546 0.21875,-0.15235 0.46875,-0.26954 0.75,-0.35547 0.20703,-0.0391 0.51953,-0.0859 0.9375,-0.14453 0.85937,-0.0937 1.48828,-0.21875 1.89453,-0.375 0,-0.13672 0,-0.23047 0,-0.26954 0,-0.42968 -0.0977,-0.73046 -0.28906,-0.89843 -0.28125,-0.25 -0.6836,-0.375 -1.21094,-0.375 -0.5,0 -0.86719,0.0937 -1.10156,0.27343 -0.24219,0.16407 -0.41407,0.47266 -0.52344,0.91407 l -1.01953,-0.125 c 0.082,-0.44141 0.23047,-0.79688 0.4375,-1.0625 0.21875,-0.27344 0.53125,-0.48438 0.9375,-0.625 0.41797,-0.14844 0.88672,-0.22657 1.41797,-0.22657 0.53906,0 0.96875,0.0625 1.28906,0.1875 0.33594,0.125 0.57422,0.28516 0.73047,0.47657 0.16797,0.18359 0.27734,0.41797 0.33203,0.71093 0.043,0.17969 0.0625,0.5 0.0625,0.95704 v 1.41796 c 0,0.97266 0.0234,1.59375 0.0625,1.85157 0.043,0.26562 0.13281,0.51562 0.27344,0.75 h -1.10547 c -0.11328,-0.21875 -0.1836,-0.47657 -0.20703,-0.76953 z m -0.0859,-2.35547 c -0.39063,0.15625 -0.96875,0.28906 -1.72656,0.39843 -0.4336,0.0703 -0.74219,0.14454 -0.91797,0.22657 -0.1836,0.0742 -0.32422,0.18359 -0.41797,0.33593 -0.0977,0.15625 -0.14453,0.32032 -0.14453,0.5 0,0.28125 0.10547,0.51563 0.3125,0.70704 0.20703,0.18359 0.51953,0.26953 0.9375,0.26953 0.40234,0 0.76172,-0.0859 1.08203,-0.26953 0.32031,-0.17579 0.55469,-0.42188 0.71094,-0.73047 0.10937,-0.23438 0.16406,-0.58203 0.16406,-1.03907 z m 0,0"
     id="path212" />
  <path
     style="fill:#000000;fill-opacity:1;fill-rule:nonzero;stroke:none"
     d="m 263.05078,478.39844 v -6.22657 h 0.95703 v 0.95704 c 0.23438,-0.44141 0.46094,-0.73438 0.66797,-0.875 0.20703,-0.13672 0.4375,-0.20704 0.6875,-0.20704 0.34375,0 0.70703,0.11329 1.08203,0.33204 l -0.375,0.98046 c -0.25,-0.15234 -0.50781,-0.23046 -0.76953,-0.23046 -0.22266,0 -0.43359,0.0742 -0.625,0.20703 -0.18359,0.14062 -0.3125,0.33593 -0.39453,0.58593 -0.11719,0.375 -0.16797,0.78516 -0.16797,1.22657 v 3.25 z m 0,0"
     id="path213" />
  <path
     style="fill:#000000;fill-opacity:1;fill-rule:nonzero;stroke:none"
     d="m 266.87891,478.92187 1.01953,0.14454 c 0.043,0.3164 0.15625,0.54687 0.35547,0.6875 0.26171,0.1914 0.625,0.29296 1.08203,0.29296 0.48437,0 0.85937,-0.10156 1.125,-0.29296 0.26172,-0.19922 0.44531,-0.46875 0.54297,-0.8125 0.0508,-0.22266 0.0742,-0.67188 0.0625,-1.35547 -0.45704,0.54297 -1.03125,0.8125 -1.70704,0.8125 -0.86718,0 -1.53125,-0.30078 -2,-0.91407 -0.46093,-0.625 -0.6875,-1.36718 -0.6875,-2.23046 0,-0.59375 0.10157,-1.14454 0.3125,-1.64454 0.21875,-0.5 0.53125,-0.88281 0.9375,-1.14843 0.39844,-0.27344 0.87891,-0.41407 1.4375,-0.41407 0.73438,0 1.33594,0.28907 1.8125,0.875 v -0.75 h 0.97657 v 5.375 c 0,0.96875 -0.10157,1.65625 -0.3125,2.0625 -0.19532,0.39844 -0.50782,0.71875 -0.9375,0.95704 -0.41407,0.23437 -0.9375,0.35546 -1.5625,0.35546 -0.75,0 -1.35157,-0.16796 -1.8125,-0.5 -0.44532,-0.33593 -0.66016,-0.83593 -0.64453,-1.5 z m 0.875,-3.75 c 0,0.82032 0.15625,1.41407 0.48046,1.78907 0.31641,0.375 0.71875,0.5625 1.20704,0.5625 0.48437,0 0.89453,-0.1875 1.23046,-0.5625 0.33204,-0.375 0.5,-0.95703 0.5,-1.75 0,-0.75782 -0.17968,-1.33594 -0.52343,-1.72657 -0.33203,-0.38671 -0.73828,-0.58593 -1.20703,-0.58593 -0.47266,0 -0.875,0.19922 -1.20704,0.58593 -0.32421,0.375 -0.48046,0.9375 -0.48046,1.6875 z m 0,0"
     id="path214" />
  <path
     style="fill:#000000;fill-opacity:1;fill-rule:nonzero;stroke:none"
     d="m 277.99219,476.39844 1.10156,0.125 c -0.17969,0.64062 -0.50781,1.14062 -0.97656,1.5 -0.46094,0.35156 -1.05469,0.52343 -1.77344,0.52343 -0.90625,0 -1.625,-0.27734 -2.16406,-0.83593 -0.53125,-0.56641 -0.79297,-1.35938 -0.79297,-2.375 0,-1.03907 0.26953,-1.84375 0.8125,-2.41407 0.54297,-0.58593 1.23828,-0.875 2.10547,-0.875 0.83203,0 1.5039,0.28516 2.01953,0.85157 0.52734,0.55859 0.79297,1.35156 0.79297,2.375 0,0.0742 0,0.16797 0,0.29297 h -4.64844 c 0.043,0.68359 0.23437,1.20312 0.58594,1.5625 0.34375,0.36328 0.78125,0.54296 1.3125,0.54296 0.38281,0 0.71093,-0.0937 0.97656,-0.29296 0.27734,-0.20704 0.49219,-0.53125 0.64844,-0.98047 z m -3.46094,-1.70703 h 3.48047 c -0.043,-0.52735 -0.17578,-0.92188 -0.39453,-1.1875 -0.33594,-0.40235 -0.77344,-0.60547 -1.3125,-0.60547 -0.49219,0 -0.89844,0.16797 -1.23047,0.5 -0.32422,0.32422 -0.5,0.75 -0.54297,1.29297 z m 0,0"
     id="path215" />
  <path
     style="fill:#000000;fill-opacity:1;fill-rule:nonzero;stroke:none"
     d="m 282.72656,477.46094 0.14844,0.91797 c -0.30859,0.0664 -0.57422,0.10546 -0.79297,0.10546 -0.39062,0 -0.6875,-0.0625 -0.89453,-0.1875 -0.21094,-0.125 -0.36719,-0.28125 -0.46094,-0.48046 -0.082,-0.19141 -0.125,-0.60547 -0.125,-1.23047 v -3.58203 h -0.76953 v -0.83204 h 0.76953 v -1.54296 l 1.0625,-0.625 v 2.16796 h 1.0625 v 0.83204 h -1.0625 v 3.625 c 0,0.30859 0.0117,0.5 0.043,0.58203 0.043,0.0859 0.10547,0.15625 0.1875,0.21093 0.082,0.0547 0.19922,0.082 0.35547,0.082 0.125,0 0.28125,-0.0117 0.47656,-0.043 z m 0,0"
     id="path216" />
  <path
     style="fill:#000000;fill-opacity:1;fill-rule:nonzero;stroke:none"
     d="m 283.33203,476.54687 1.04297,-0.16796 c 0.0508,0.41796 0.21484,0.73828 0.48047,0.95703 0.27344,0.22656 0.64844,0.33593 1.125,0.33593 0.48437,0 0.84375,-0.0937 1.08203,-0.29296 0.23437,-0.19141 0.35547,-0.42188 0.35547,-0.6875 0,-0.25 -0.10547,-0.4375 -0.3125,-0.5625 -0.15625,-0.0937 -0.51563,-0.21875 -1.08594,-0.375 -0.78125,-0.19141 -1.32031,-0.35938 -1.625,-0.5 -0.28906,-0.13672 -0.51562,-0.33204 -0.66406,-0.58204 -0.15625,-0.25 -0.23047,-0.52734 -0.23047,-0.83593 0,-0.27344 0.0625,-0.53125 0.1875,-0.76953 0.125,-0.23438 0.29687,-0.4375 0.51953,-0.60547 0.16797,-0.10938 0.38672,-0.20703 0.66797,-0.28907 0.29297,-0.0859 0.59375,-0.125 0.91797,-0.125 0.48437,0 0.90625,0.0703 1.26953,0.20704 0.375,0.14062 0.65234,0.32812 0.83203,0.5625 0.17969,0.23828 0.30469,0.55859 0.375,0.95703 l -1.03906,0.14843 c -0.043,-0.32031 -0.1836,-0.57031 -0.41797,-0.75 -0.22266,-0.17968 -0.53516,-0.27343 -0.9375,-0.27343 -0.48828,0 -0.83203,0.0859 -1.04297,0.25 -0.20703,0.15625 -0.3125,0.34375 -0.3125,0.5625 0,0.14062 0.043,0.26172 0.125,0.35547 0.0859,0.125 0.21875,0.22265 0.41797,0.29296 0.0937,0.0391 0.40234,0.13282 0.91797,0.26954 0.75,0.19921 1.26953,0.35546 1.5625,0.48046 0.30078,0.125 0.53906,0.3125 0.70703,0.5625 0.16797,0.23829 0.25,0.53516 0.25,0.89454 0,0.36328 -0.10547,0.69921 -0.3125,1 -0.20703,0.30859 -0.51172,0.55078 -0.89453,0.73046 -0.375,0.16407 -0.8125,0.25 -1.3125,0.25 -0.8086,0 -1.42969,-0.16796 -1.85547,-0.5 -0.41797,-0.34375 -0.68359,-0.84375 -0.79297,-1.5 z m 0,0"
     id="path217" />
  <path
     style="fill:none;stroke:#000000;stroke-width:1.33333;stroke-linecap:round;stroke-linejoin:round;stroke-miterlimit:10;stroke-opacity:1"
     d="m 269.28104,461.06622 v -7.06639"
     id="path218" />
  <path
     style="fill:none;stroke:#000000;stroke-width:1.33333;stroke-linecap:butt;stroke-linejoin:miter;stroke-miterlimit:10;stroke-opacity:1"
     d="m 269.28104,448.6678 v 5.33203 m -2,0 2,-5.33203 2,5.33203"
     id="path219" />
  <path
     style="fill:none;stroke:#000000;stroke-width:1.33333;stroke-linecap:round;stroke-linejoin:round;stroke-miterlimit:10;stroke-opacity:1"
     d="m 281.48806,359.69906 h 38.6875 c 2.93749,0 5.3203,-2.37109 5.33593,-5.30858 l 0.32812,-76.32812 c 0.0156,-2.9414 -2.36719,-5.34374 -5.30859,-5.35546 -0.0469,0 -0.0937,0 -0.14062,0 l -1.77735,0.0391"
     id="path220" />
  <path
     style="fill:none;stroke:#000000;stroke-width:1.33333;stroke-linecap:butt;stroke-linejoin:miter;stroke-miterlimit:10;stroke-opacity:1"
     d="m 313.28103,272.86315 5.33202,-0.1172 m 0.0429,2 -5.37499,-1.88281 5.28514,-2.11328"
     id="path221" />
  <path
     style="fill:none;stroke:#000000;stroke-width:1.33333;stroke-linecap:round;stroke-linejoin:round;stroke-miterlimit:10;stroke-opacity:1"
     d="m 269.55057,359.69906 h 16 c 2.94921,0 5.33593,-2.38672 5.33593,-5.33593 v -1.44531"
     id="path222" />
  <path
     style="fill:none;stroke:#000000;stroke-width:1.33333;stroke-linecap:butt;stroke-linejoin:miter;stroke-miterlimit:10;stroke-opacity:1"
     d="m 290.8865,347.58188 v 5.33594 m -2,0 2,-5.33594 2,5.33594"
     id="path223" />
  <path
     style="fill:none;stroke:#000000;stroke-width:1.33333;stroke-linecap:round;stroke-linejoin:round;stroke-miterlimit:10;stroke-opacity:1"
     d="m 269.55057,359.69906 h -16.1289 c -2.94923,0 -5.33204,-2.38672 -5.33204,-5.33593 v -1.44531"
     id="path224" />
  <path
     style="fill:none;stroke:#000000;stroke-width:1.33333;stroke-linecap:butt;stroke-linejoin:miter;stroke-miterlimit:10;stroke-opacity:1"
     d="m 248.08963,347.58188 v 5.33594 m -2,0 2,-5.33594 2,5.33594"
     id="path225" />
  <path
     style="fill:none;stroke:#000000;stroke-width:1.33333;stroke-linecap:round;stroke-linejoin:round;stroke-miterlimit:10;stroke-opacity:1"
     d="m 270.28494,160.86318 h 49.53904 c 2.94532,0 5.33204,-2.39063 5.33204,-5.33203 V 90.24601 c 0,-2.949213 -2.38672,-5.335932 -5.33204,-5.335932 -0.15233,0 -0.30858,0.008 -0.46484,0.02347 l -0.77734,0.0664"
     id="path232" />
  <path
     style="fill:none;stroke:#000000;stroke-width:1.33333;stroke-linecap:butt;stroke-linejoin:miter;stroke-miterlimit:10;stroke-opacity:1"
     d="m 313.26931,85.464758 5.31249,-0.46484 m 0.17969,1.988279 -5.49218,-1.523439 5.14062,-2.460933"
     id="path233" />
  <path
     style="fill:none;stroke:#000000;stroke-width:1.33333;stroke-linecap:round;stroke-linejoin:round;stroke-miterlimit:10;stroke-opacity:1"
     d="M 269.39432,78.644453 269.55837,63.33195"
     id="path234" />
  <path
     style="fill:none;stroke:#000000;stroke-width:1.33333;stroke-linecap:butt;stroke-linejoin:miter;stroke-miterlimit:10;stroke-opacity:1"
     d="m 269.61306,57.999925 -0.0547,5.332025 m -2,-0.01947 2.05469,-5.312492 1.94531,5.355465"
     id="path235" />
  <g
     clip-path="url(#clip1)"
     clip-rule="nonzero"
     id="g237">
    <path
       style="fill:#000000;fill-opacity:1;fill-rule:nonzero;stroke:none"
       d="m 351.48437,211.98437 2.375,-2.375 c 0.125,-0.14843 0.16407,-0.16796 0.16407,-0.25 0,-0.14843 -0.125,-0.25 -0.25,-0.25 -0.082,0 -0.14453,0.0391 -0.25,0.16407 l -2.39453,2.375 -2.39454,-2.375 c -0.125,-0.14453 -0.16796,-0.16407 -0.25,-0.16407 -0.125,0 -0.25,0.10157 -0.25,0.25 0,0.082 0.0625,0.14454 0.16407,0.25 l 2.375,2.375 -2.375,2.39454 c -0.125,0.10546 -0.16407,0.1875 -0.16407,0.25 0,0.14453 0.125,0.25 0.25,0.25 0.082,0 0.125,-0.0195 0.25,-0.16797 l 2.39454,-2.375 2.39453,2.375 c 0.10547,0.125 0.1875,0.16797 0.25,0.16797 0.14843,0 0.25,-0.10547 0.25,-0.25 0,-0.082 -0.0391,-0.10547 -0.16407,-0.25 z m 0,0"
       id="path236" />
    <path
       style="fill:#000000;fill-opacity:1;fill-rule:nonzero;stroke:none"
       d="m 351.48437,211.98437 2.375,-2.375 c 0.125,-0.14843 0.16407,-0.16796 0.16407,-0.25 0,-0.14843 -0.125,-0.25 -0.25,-0.25 -0.082,0 -0.14453,0.0391 -0.25,0.16407 l -2.39453,2.375 -2.39454,-2.375 c -0.125,-0.14453 -0.16796,-0.16407 -0.25,-0.16407 -0.125,0 -0.25,0.10157 -0.25,0.25 0,0.082 0.0625,0.14454 0.16407,0.25 l 2.375,2.375 -2.375,2.39454 c -0.125,0.10546 -0.16407,0.1875 -0.16407,0.25 0,0.14453 0.125,0.25 0.25,0.25 0.082,0 0.125,-0.0195 0.25,-0.16797 l 2.39454,-2.375 2.39453,2.375 c 0.10547,0.125 0.1875,0.16797 0.25,0.16797 0.14843,0 0.25,-0.10547 0.25,-0.25 0,-0.082 -0.0391,-0.10547 -0.16407,-0.25 z m 0,0"
       id="path237" />
  </g>
  <path
     style="fill:#000000;fill-opacity:1;fill-rule:nonzero;stroke:none"
     d="m 363.27344,213.67187 c -0.082,0.10547 -0.16407,0.21094 -0.25,0.3125 -0.35157,0.4375 -0.5625,0.625 -0.72657,0.625 -0.14843,0 -0.1875,-0.10156 -0.1875,-0.20703 0,-0.10547 0.0391,-0.3125 0.16407,-0.73047 l 0.66797,-2.4375 c 0.0625,-0.25 0.125,-0.51953 0.125,-0.72656 0,-0.4375 -0.26954,-0.73047 -0.79297,-0.73047 -0.76953,0 -1.5625,0.73047 -2.76953,2.64453 l 0.8125,-2.625 -0.0625,-0.0195 c -0.625,0.125 -0.95704,0.1875 -1.9375,0.375 v 0.1875 c 0.60546,0.0195 0.79296,0.082 0.79296,0.33203 0,0.0625 -0.0234,0.14844 -0.043,0.1875 l -1.14454,4.21094 h 0.89454 c 0.5625,-1.89844 0.66796,-2.16797 1.20703,-2.98047 0.75,-1.10547 1.29297,-1.70703 1.77343,-1.70703 0.1875,0 0.28907,0.14453 0.28907,0.35156 0,0.14844 -0.082,0.58594 -0.16407,0.96094 l -0.52343,1.9375 c -0.1875,0.625 -0.20703,0.76953 -0.20703,0.89453 0,0.45703 0.26953,0.64453 0.5625,0.64453 0.5625,0 0.875,-0.22656 1.6875,-1.35156 z m 0,0"
     id="path238" />
  <path
     style="fill:#000000;fill-opacity:1;fill-rule:nonzero;stroke:none"
     d="M 247.51953,17.601562 V 9.015625 h 2.95703 c 0.67578,0 1.19141,0.042969 1.54297,0.125 0.48438,0.117187 0.89844,0.3125 1.25,0.605469 0.45703,0.390625 0.79688,0.886718 1.01953,1.480468 0.21875,0.582032 0.33203,1.265626 0.33203,2.039063 0,0.65625 -0.0781,1.230469 -0.22656,1.730469 -0.15625,0.5 -0.35156,0.917968 -0.58594,1.25 -0.23828,0.332031 -0.5,0.597656 -0.78906,0.792968 -0.28125,0.179688 -0.62109,0.320313 -1.02344,0.414063 -0.39062,0.101563 -0.84765,0.148437 -1.375,0.148437 z m 1.14453,-1.023437 h 1.83203 c 0.57032,0 1.01172,-0.04687 1.33594,-0.144531 0.31641,-0.109375 0.57031,-0.261719 0.76953,-0.457032 0.26172,-0.261718 0.46875,-0.625 0.625,-1.085937 0.15235,-0.457031 0.23047,-1.003906 0.23047,-1.644531 0,-0.902344 -0.14844,-1.589844 -0.4375,-2.0625 -0.29297,-0.484375 -0.65625,-0.8125 -1.08594,-0.980469 -0.30468,-0.125 -0.78906,-0.1875 -1.45703,-0.1875 h -1.8125 z m 0,0"
     id="path249" />
  <path
     style="fill:#000000;fill-opacity:1;fill-rule:nonzero;stroke:none"
     d="m 260.30859,15.601562 1.10547,0.125 c -0.18359,0.640626 -0.51172,1.140626 -0.98047,1.5 -0.45703,0.347657 -1.05078,0.519532 -1.76953,0.519532 -0.90625,0 -1.625,-0.277344 -2.16797,-0.832032 -0.53125,-0.570312 -0.78906,-1.359374 -0.78906,-2.375 0,-1.042968 0.26953,-1.84375 0.8125,-2.417968 0.53906,-0.582032 1.23828,-0.875 2.10156,-0.875 0.83594,0 1.50782,0.285156 2.02344,0.855468 0.52344,0.554688 0.78906,1.347657 0.78906,2.375 0,0.07031 0,0.164063 0,0.289063 h -4.64453 c 0.043,0.683594 0.23438,1.203125 0.58203,1.5625 0.34375,0.367187 0.78125,0.542969 1.3125,0.542969 0.38672,0 0.71485,-0.09375 0.98047,-0.292969 0.27735,-0.207031 0.48828,-0.53125 0.64453,-0.976563 z m -3.45703,-1.710937 h 3.48047 c -0.043,-0.523437 -0.17969,-0.921875 -0.39844,-1.1875 -0.33203,-0.398437 -0.76953,-0.601563 -1.3125,-0.601563 -0.48828,0 -0.89453,0.164063 -1.22656,0.5 -0.32422,0.320313 -0.5,0.75 -0.54297,1.289063 z m 0,0"
     id="path250" />
  <path
     style="fill:#000000;fill-opacity:1;fill-rule:nonzero;stroke:none"
     d="m 266.79687,15.328125 1.04297,0.125 c -0.11718,0.726563 -0.40625,1.289063 -0.875,1.6875 -0.47656,0.40625 -1.05468,0.605469 -1.73047,0.605469 -0.84765,0 -1.53125,-0.277344 -2.04296,-0.832032 -0.51563,-0.554687 -0.76954,-1.355468 -0.76954,-2.398437 0,-0.675781 0.10938,-1.269531 0.33204,-1.769531 0.21875,-0.5 0.55468,-0.875 1,-1.125 0.46093,-0.25 0.96093,-0.375 1.5,-0.375 0.66796,0 1.21484,0.175781 1.64843,0.519531 0.42578,0.335937 0.70703,0.8125 0.83203,1.4375 l -1.01953,0.167969 c -0.10156,-0.417969 -0.27343,-0.730469 -0.52343,-0.9375 -0.25,-0.21875 -0.55079,-0.332032 -0.89454,-0.332032 -0.54296,0 -0.98046,0.195313 -1.3125,0.582032 -0.32421,0.375 -0.48046,0.972656 -0.48046,1.792968 0,0.847657 0.15625,1.457032 0.48046,1.832032 0.31641,0.375 0.73438,0.5625 1.25,0.5625 0.41797,0 0.76172,-0.125 1.04297,-0.375 0.27344,-0.25 0.44532,-0.636719 0.51953,-1.167969 z m 0,0"
     id="path251" />
  <path
     style="fill:#000000;fill-opacity:1;fill-rule:nonzero;stroke:none"
     d="m 268.33984,14.496094 c 0,-1.152344 0.31641,-2.003906 0.95703,-2.5625 0.54297,-0.457032 1.19141,-0.6875 1.95704,-0.6875 0.85937,0 1.5625,0.28125 2.10546,0.832031 0.54297,0.558594 0.8125,1.328125 0.8125,2.3125 0,0.808594 -0.125,1.4375 -0.375,1.898437 -0.23828,0.457032 -0.58203,0.820313 -1.04296,1.082032 -0.45704,0.25 -0.95704,0.375 -1.5,0.375 -0.875,0 -1.58204,-0.277344 -2.125,-0.832032 -0.53125,-0.570312 -0.78907,-1.375 -0.78907,-2.417968 z m 1.08203,0 c 0,0.792968 0.17188,1.390625 0.51954,1.792968 0.34375,0.390626 0.78125,0.582032 1.3125,0.582032 0.52734,0 0.96484,-0.191406 1.3125,-0.582032 0.34375,-0.402343 0.52343,-1.011718 0.52343,-1.835937 0,-0.757813 -0.17968,-1.34375 -0.52343,-1.75 -0.34766,-0.398437 -0.78516,-0.601563 -1.3125,-0.601563 -0.53125,0 -0.96875,0.203126 -1.3125,0.601563 -0.34766,0.390625 -0.51954,0.992187 -0.51954,1.792969 z m 0,0"
     id="path252" />
  <path
     style="fill:#000000;fill-opacity:1;fill-rule:nonzero;stroke:none"
     d="m 279.44922,17.601562 v -0.792968 c -0.40625,0.625 -0.98828,0.9375 -1.75,0.9375 -0.48828,0 -0.9375,-0.140625 -1.35156,-0.417969 -0.41797,-0.273437 -0.7461,-0.65625 -0.98047,-1.144531 -0.22266,-0.484375 -0.33203,-1.046875 -0.33203,-1.6875 0,-0.625 0.10156,-1.1875 0.3125,-1.6875 0.20703,-0.511719 0.50781,-0.902344 0.91406,-1.167969 0.41797,-0.257813 0.88281,-0.394531 1.39844,-0.394531 0.375,0 0.70703,0.07813 1,0.230468 0.28906,0.15625 0.52343,0.363282 0.70703,0.625 V 9.015625 h 1.0625 v 8.585937 z m -3.33203,-3.105468 c 0,0.792968 0.16797,1.390625 0.5,1.792968 0.33203,0.390626 0.73047,0.582032 1.1875,0.582032 0.45703,0 0.84375,-0.1875 1.16797,-0.5625 0.33203,-0.375 0.5,-0.949219 0.5,-1.730469 0,-0.84375 -0.16797,-1.46875 -0.5,-1.875 -0.33594,-0.398437 -0.74219,-0.601563 -1.21094,-0.601563 -0.47266,0 -0.86719,0.195313 -1.1875,0.582032 -0.30469,0.390625 -0.45703,0.996094 -0.45703,1.8125 z m 0,0"
     id="path253" />
  <path
     style="fill:#000000;fill-opacity:1;fill-rule:nonzero;stroke:none"
     d="m 286.33203,15.601562 1.10547,0.125 c -0.18359,0.640626 -0.51172,1.140626 -0.98047,1.5 -0.45703,0.347657 -1.05078,0.519532 -1.76953,0.519532 -0.90625,0 -1.625,-0.277344 -2.16797,-0.832032 -0.53125,-0.570312 -0.78906,-1.359374 -0.78906,-2.375 0,-1.042968 0.26953,-1.84375 0.8125,-2.417968 0.53906,-0.582032 1.23828,-0.875 2.10156,-0.875 0.83594,0 1.50781,0.285156 2.02344,0.855468 0.52344,0.554688 0.78906,1.347657 0.78906,2.375 0,0.07031 0,0.164063 0,0.289063 h -4.64453 c 0.043,0.683594 0.23437,1.203125 0.58203,1.5625 0.34375,0.367187 0.78125,0.542969 1.3125,0.542969 0.38672,0 0.71484,-0.09375 0.98047,-0.292969 0.27734,-0.207031 0.48828,-0.53125 0.64453,-0.976563 z M 282.875,13.890625 h 3.48047 c -0.043,-0.523437 -0.17969,-0.921875 -0.39844,-1.1875 -0.33203,-0.398437 -0.76953,-0.601563 -1.3125,-0.601563 -0.48828,0 -0.89453,0.164063 -1.22656,0.5 -0.32422,0.320313 -0.5,0.75 -0.54297,1.289063 z m 0,0"
     id="path254" />
  <path
     style="fill:#000000;fill-opacity:1;fill-rule:nonzero;stroke:none"
     d="m 288.73828,17.601562 v -6.230468 h 0.95703 v 0.957031 c 0.23438,-0.441406 0.45703,-0.734375 0.66797,-0.875 0.20703,-0.132813 0.4375,-0.207031 0.6875,-0.207031 0.34375,0 0.70703,0.113281 1.08203,0.332031 l -0.375,0.980469 c -0.25,-0.152344 -0.51172,-0.230469 -0.76953,-0.230469 -0.22656,0 -0.43359,0.07422 -0.625,0.210937 -0.18359,0.140626 -0.3125,0.332032 -0.39844,0.582032 -0.11328,0.375 -0.16406,0.785156 -0.16406,1.230468 v 3.25 z m 0,0"
     id="path255" />
  <path
     style="fill:none;stroke:#000000;stroke-width:1.33333;stroke-linecap:round;stroke-linejoin:round;stroke-miterlimit:10;stroke-opacity:1"
     d="m 296.2654,380.26547 h 82.93357 v 34.93358 H 296.2654 Z m 0,0"
     id="path279" />
  <path
     style="fill:#000000;fill-opacity:1;fill-rule:nonzero;stroke:none"
     d="m 312.63281,394.67578 v -8.58594 h 3.25 c 0.57031,0 1.00781,0.0312 1.3125,0.0859 0.41797,0.0703 0.76172,0.20313 1.04297,0.39453 0.29297,0.19922 0.51953,0.47266 0.6875,0.83203 0.17578,0.35157 0.26953,0.74219 0.26953,1.16797 0,0.73828 -0.23828,1.35547 -0.70703,1.85547 -0.45703,0.5 -1.29297,0.75 -2.5,0.75 h -2.20703 v 3.5 z m 1.14844,-4.5 h 2.22656 c 0.71875,0 1.23438,-0.13672 1.54297,-0.41797 0.31641,-0.27734 0.48047,-0.65625 0.48047,-1.14453 0,-0.35937 -0.0937,-0.66797 -0.27344,-0.91797 -0.17969,-0.26172 -0.42578,-0.4375 -0.72656,-0.51953 -0.18359,-0.0547 -0.53906,-0.0859 -1.0625,-0.0859 h -2.1875 z m 0,0"
     id="path280" />
  <path
     style="fill:#000000;fill-opacity:1;fill-rule:nonzero;stroke:none"
     d="m 320.11719,391.57031 c 0,-1.15234 0.3164,-2.0039 0.95703,-2.5625 0.54297,-0.45703 1.19531,-0.6875 1.96094,-0.6875 0.85937,0 1.5625,0.28125 2.10156,0.83203 0.54297,0.5586 0.8125,1.32813 0.8125,2.3125 0,0.8086 -0.125,1.4375 -0.375,1.89844 -0.23828,0.45703 -0.58203,0.82031 -1.03906,1.08203 -0.46094,0.25 -0.96094,0.375 -1.5,0.375 -0.875,0 -1.58594,-0.27734 -2.125,-0.83203 -0.53125,-0.57031 -0.79297,-1.375 -0.79297,-2.41797 z m 1.08203,0 c 0,0.79297 0.17187,1.39063 0.52344,1.79297 0.34375,0.39063 0.78125,0.58203 1.3125,0.58203 0.52343,0 0.96093,-0.1914 1.3125,-0.58203 0.34375,-0.40234 0.51953,-1.01172 0.51953,-1.83594 0,-0.75781 -0.17578,-1.34375 -0.51953,-1.75 -0.35157,-0.39843 -0.78907,-0.60156 -1.3125,-0.60156 -0.53125,0 -0.96875,0.20313 -1.3125,0.60156 -0.35157,0.39063 -0.52344,0.99219 -0.52344,1.79297 z m 0,0"
     id="path281" />
  <path
     style="fill:#000000;fill-opacity:1;fill-rule:nonzero;stroke:none"
     d="m 326.76953,392.82031 1.04297,-0.16797 c 0.0508,0.41797 0.21484,0.74219 0.48047,0.96094 0.27344,0.22266 0.64844,0.33203 1.125,0.33203 0.48437,0 0.84375,-0.0937 1.08203,-0.29297 0.23437,-0.1914 0.35547,-0.42187 0.35547,-0.6875 0,-0.25 -0.10547,-0.4375 -0.3125,-0.5625 -0.15625,-0.0937 -0.51563,-0.21875 -1.08594,-0.375 -0.78125,-0.1914 -1.32031,-0.35937 -1.625,-0.5 -0.28906,-0.13281 -0.51562,-0.33203 -0.66406,-0.58203 -0.15625,-0.25 -0.23047,-0.52734 -0.23047,-0.83203 0,-0.27734 0.0625,-0.53125 0.1875,-0.77344 0.125,-0.23437 0.29687,-0.4375 0.51953,-0.60156 0.16797,-0.10937 0.38672,-0.21094 0.66797,-0.29297 0.29297,-0.082 0.59375,-0.125 0.91797,-0.125 0.48437,0 0.90625,0.0742 1.26953,0.20703 0.375,0.14063 0.65234,0.32813 0.83203,0.5625 0.17969,0.24219 0.30469,0.5586 0.375,0.96094 l -1.03906,0.14453 c -0.043,-0.3164 -0.1836,-0.5664 -0.41797,-0.75 -0.22266,-0.17578 -0.53516,-0.26953 -0.9375,-0.26953 -0.48828,0 -0.83203,0.082 -1.04297,0.25 -0.20703,0.15625 -0.3125,0.34375 -0.3125,0.5625 0,0.14063 0.043,0.25781 0.125,0.35156 0.0859,0.125 0.21875,0.22657 0.41797,0.29297 0.0937,0.043 0.40234,0.13672 0.91797,0.26953 0.75,0.19922 1.26953,0.35547 1.5625,0.48047 0.30078,0.125 0.53906,0.3125 0.70703,0.5625 0.16797,0.23828 0.25,0.53516 0.25,0.89453 0,0.36719 -0.10547,0.69922 -0.3125,1 -0.20703,0.3086 -0.51172,0.55469 -0.89453,0.73047 -0.375,0.16797 -0.8125,0.25 -1.3125,0.25 -0.8086,0 -1.42969,-0.16797 -1.85547,-0.5 -0.41797,-0.34375 -0.68359,-0.84375 -0.79297,-1.5 z m 0,0"
     id="path282" />
  <path
     style="fill:#000000;fill-opacity:1;fill-rule:nonzero;stroke:none"
     d="m 333.1875,387.30078 v -1.21094 h 1.0625 v 1.21094 z m 0,7.375 v -6.23047 h 1.0625 v 6.23047 z m 0,0"
     id="path283" />
  <path
     style="fill:#000000;fill-opacity:1;fill-rule:nonzero;stroke:none"
     d="m 338.16797,393.73828 0.14453,0.91406 c -0.30859,0.0703 -0.57422,0.10547 -0.79297,0.10547 -0.39062,0 -0.6875,-0.0625 -0.89453,-0.1875 -0.20703,-0.125 -0.36328,-0.28125 -0.45703,-0.48047 -0.0859,-0.1914 -0.125,-0.60156 -0.125,-1.22656 v -3.58594 h -0.77344 v -0.83203 h 0.77344 v -1.54297 l 1.0625,-0.625 v 2.16797 h 1.0625 v 0.83203 h -1.0625 v 3.625 c 0,0.3086 0.008,0.5 0.0391,0.58594 0.043,0.082 0.10547,0.15625 0.1875,0.20703 0.0859,0.0586 0.19922,0.082 0.35547,0.082 0.125,0 0.28125,-0.008 0.48047,-0.0391 z m 0,0"
     id="path284" />
  <path
     style="fill:#000000;fill-opacity:1;fill-rule:nonzero;stroke:none"
     d="m 339.1875,387.30078 v -1.21094 h 1.0625 v 1.21094 z m 0,7.375 v -6.23047 h 1.0625 v 6.23047 z m 0,0"
     id="path285" />
  <path
     style="fill:#000000;fill-opacity:1;fill-rule:nonzero;stroke:none"
     d="m 341.45703,391.57031 c 0,-1.15234 0.32031,-2.0039 0.96094,-2.5625 0.53906,-0.45703 1.1914,-0.6875 1.95703,-0.6875 0.85937,0 1.5625,0.28125 2.10547,0.83203 0.53906,0.5586 0.8125,1.32813 0.8125,2.3125 0,0.8086 -0.125,1.4375 -0.375,1.89844 -0.24219,0.45703 -0.58594,0.82031 -1.04297,1.08203 -0.45703,0.25 -0.95703,0.375 -1.5,0.375 -0.875,0 -1.58203,-0.27734 -2.125,-0.83203 -0.53125,-0.57031 -0.79297,-1.375 -0.79297,-2.41797 z m 1.08594,0 c 0,0.79297 0.17187,1.39063 0.51953,1.79297 0.34375,0.39063 0.78125,0.58203 1.3125,0.58203 0.52734,0 0.96484,-0.1914 1.3125,-0.58203 0.34375,-0.40234 0.51953,-1.01172 0.51953,-1.83594 0,-0.75781 -0.17578,-1.34375 -0.51953,-1.75 -0.34766,-0.39843 -0.78516,-0.60156 -1.3125,-0.60156 -0.53125,0 -0.96875,0.20313 -1.3125,0.60156 -0.34766,0.39063 -0.51953,0.99219 -0.51953,1.79297 z m 0,0"
     id="path286" />
  <path
     style="fill:#000000;fill-opacity:1;fill-rule:nonzero;stroke:none"
     d="m 348.52734,394.67578 v -6.23047 h 0.96094 v 0.89453 c 0.44141,-0.67578 1.10156,-1.01953 1.97656,-1.01953 0.375,0 0.71485,0.0742 1.02344,0.20703 0.31641,0.125 0.55078,0.30469 0.70703,0.52344 0.15235,0.20703 0.26172,0.46875 0.33203,0.76953 0.043,0.19922 0.0625,0.53516 0.0625,1.01953 v 3.83594 h -1.0625 v -3.79297 c 0,-0.42578 -0.0391,-0.75 -0.125,-0.95703 -0.082,-0.21094 -0.22656,-0.375 -0.4375,-0.5 -0.20703,-0.13672 -0.45312,-0.21094 -0.72656,-0.21094 -0.44922,0 -0.83594,0.14844 -1.16797,0.4375 -0.32422,0.28125 -0.48047,0.82422 -0.48047,1.625 v 3.39844 z m 0,0"
     id="path287" />
  <path
     style="fill:#000000;fill-opacity:1;fill-rule:nonzero;stroke:none"
     d="m 359.26562,393.90234 c -0.39062,0.33594 -0.76562,0.57422 -1.125,0.71094 -0.36328,0.13281 -0.75,0.20703 -1.16796,0.20703 -0.67969,0 -1.20704,-0.16797 -1.58204,-0.5 -0.36328,-0.33203 -0.54296,-0.76172 -0.54296,-1.29297 0,-0.30078 0.0703,-0.58203 0.21093,-0.83203 0.13282,-0.25 0.31641,-0.44922 0.53907,-0.60547 0.21875,-0.14843 0.46875,-0.26953 0.75,-0.35156 0.21093,-0.043 0.52343,-0.0898 0.9375,-0.14844 0.85937,-0.0937 1.49218,-0.21875 1.89843,-0.375 0,-0.13281 0,-0.22656 0,-0.26953 0,-0.42578 -0.10156,-0.73047 -0.29297,-0.89453 -0.28125,-0.25 -0.68359,-0.375 -1.20703,-0.375 -0.5,0 -0.87109,0.0937 -1.10547,0.26953 -0.23828,0.16797 -0.41015,0.47266 -0.51953,0.91797 l -1.02343,-0.125 c 0.0859,-0.44531 0.23046,-0.79687 0.4375,-1.0625 0.21875,-0.27734 0.53125,-0.48437 0.9375,-0.625 0.41796,-0.15234 0.88671,-0.23047 1.41796,-0.23047 0.54297,0 0.96875,0.0625 1.29297,0.1875 0.33203,0.125 0.57032,0.28516 0.72657,0.48047 0.16796,0.17969 0.27734,0.41406 0.33593,0.70703 0.0391,0.1836 0.0625,0.5 0.0625,0.95703 v 1.41797 c 0,0.97266 0.0195,1.59375 0.0625,1.85547 0.0391,0.26563 0.12891,0.51563 0.26953,0.75 h -1.10546 c -0.11329,-0.21875 -0.17969,-0.48047 -0.20704,-0.77344 z m -0.082,-2.35156 c -0.39062,0.15625 -0.96875,0.28516 -1.73047,0.39453 -0.43359,0.0742 -0.73828,0.14453 -0.91796,0.23047 -0.17969,0.0703 -0.32032,0.17969 -0.41407,0.33203 -0.10156,0.15625 -0.14843,0.32422 -0.14843,0.5 0,0.28125 0.10546,0.51563 0.3125,0.70703 0.21093,0.1836 0.52343,0.27344 0.9375,0.27344 0.40234,0 0.76171,-0.0898 1.08593,-0.27344 0.31641,-0.17578 0.55078,-0.42187 0.70703,-0.72656 0.10938,-0.23437 0.16797,-0.58594 0.16797,-1.04297 z m 0,0"
     id="path288" />
  <path
     style="fill:#000000;fill-opacity:1;fill-rule:nonzero;stroke:none"
     d="m 361.85547,394.67578 v -8.58594 h 1.04297 v 8.58594 z m 0,0"
     id="path289" />
  <path
     style="fill:#000000;fill-opacity:1;fill-rule:nonzero;stroke:none"
     d="m 318.42187,406.39844 1.10157,0.125 c -0.17969,0.64062 -0.50782,1.14062 -0.97657,1.5 -0.46093,0.35156 -1.05468,0.52343 -1.77343,0.52343 -0.90625,0 -1.625,-0.27734 -2.16407,-0.83593 -0.53125,-0.56641 -0.79296,-1.35938 -0.79296,-2.375 0,-1.03907 0.26953,-1.84375 0.8125,-2.41407 0.54296,-0.58593 1.23828,-0.875 2.10546,-0.875 0.83204,0 1.50391,0.28516 2.01954,0.85157 0.52734,0.55859 0.79296,1.35156 0.79296,2.375 0,0.0742 0,0.16797 0,0.29297 h -4.64843 c 0.043,0.68359 0.23437,1.20312 0.58593,1.5625 0.34375,0.36328 0.78125,0.54296 1.3125,0.54296 0.38282,0 0.71094,-0.0937 0.97657,-0.29296 0.27734,-0.20704 0.49218,-0.53125 0.64843,-0.98047 z m -3.46093,-1.70703 h 3.48047 c -0.043,-0.52735 -0.17579,-0.92188 -0.39454,-1.1875 -0.33593,-0.40235 -0.77343,-0.60547 -1.3125,-0.60547 -0.49218,0 -0.89843,0.16797 -1.23046,0.5 -0.32422,0.32422 -0.5,0.75 -0.54297,1.29297 z m 0,0"
     id="path290" />
  <path
     style="fill:#000000;fill-opacity:1;fill-rule:nonzero;stroke:none"
     d="m 320.84375,408.39844 v -6.22657 h 0.96094 v 0.89454 c 0.4414,-0.67579 1.10156,-1.01954 1.97656,-1.01954 0.375,0 0.71484,0.0703 1.02344,0.20704 0.3164,0.125 0.55078,0.30078 0.70703,0.51953 0.15234,0.21093 0.26172,0.46875 0.33203,0.77343 0.043,0.19532 0.0625,0.53516 0.0625,1.01954 v 3.83203 h -1.0625 v -3.78907 c 0,-0.42968 -0.0391,-0.75 -0.125,-0.96093 -0.082,-0.20703 -0.22656,-0.375 -0.4375,-0.5 -0.20703,-0.13282 -0.45313,-0.20703 -0.72656,-0.20703 -0.44922,0 -0.83594,0.14453 -1.16797,0.4375 -0.32422,0.28125 -0.48047,0.82421 -0.48047,1.625 v 3.39453 z m 0,0"
     id="path291" />
  <path
     style="fill:#000000;fill-opacity:1;fill-rule:nonzero;stroke:none"
     d="m 331.58203,406.12891 1.04297,0.125 c -0.11719,0.72265 -0.40625,1.28515 -0.875,1.6875 -0.47656,0.40625 -1.05469,0.60546 -1.73047,0.60546 -0.84766,0 -1.53125,-0.27734 -2.04297,-0.83593 -0.51562,-0.55078 -0.76953,-1.35157 -0.76953,-2.39453 0,-0.67579 0.10938,-1.26954 0.33203,-1.76954 0.21875,-0.5 0.55469,-0.875 1,-1.125 0.46094,-0.25 0.96094,-0.375 1.5,-0.375 0.66797,0 1.21485,0.17579 1.64844,0.51954 0.42578,0.33203 0.70703,0.8125 0.83203,1.4375 L 331.5,404.17187 c -0.10156,-0.41796 -0.27344,-0.73046 -0.52344,-0.9375 -0.25,-0.21875 -0.55078,-0.33593 -0.89453,-0.33593 -0.54297,0 -0.98047,0.19922 -1.3125,0.58593 -0.32422,0.375 -0.48047,0.97266 -0.48047,1.78907 0,0.85156 0.15625,1.46093 0.48047,1.83593 0.31641,0.375 0.73438,0.5625 1.25,0.5625 0.41797,0 0.76172,-0.125 1.04297,-0.375 0.27344,-0.25 0.44531,-0.63671 0.51953,-1.16796 z m 0,0"
     id="path292" />
  <path
     style="fill:#000000;fill-opacity:1;fill-rule:nonzero;stroke:none"
     d="m 333.125,405.29687 c 0,-1.15234 0.31641,-2.00781 0.95703,-2.5625 0.54297,-0.46093 1.19141,-0.6875 1.95703,-0.6875 0.85938,0 1.5625,0.28125 2.10547,0.83204 0.54297,0.55859 0.8125,1.32812 0.8125,2.3125 0,0.80859 -0.125,1.4375 -0.375,1.89453 -0.23828,0.46093 -0.58203,0.82422 -1.04297,1.08593 -0.45703,0.25 -0.95703,0.375 -1.5,0.375 -0.875,0 -1.58203,-0.27734 -2.125,-0.83593 -0.53125,-0.56641 -0.78906,-1.375 -0.78906,-2.41407 z m 1.08203,0 c 0,0.78907 0.17188,1.39063 0.51953,1.78907 0.34375,0.39062 0.78125,0.58593 1.3125,0.58593 0.52735,0 0.96485,-0.19531 1.3125,-0.58593 0.34375,-0.39844 0.52344,-1.00782 0.52344,-1.83203 0,-0.76172 -0.17969,-1.34375 -0.52344,-1.75 -0.34765,-0.40235 -0.78515,-0.60547 -1.3125,-0.60547 -0.53125,0 -0.96875,0.20312 -1.3125,0.60547 -0.34765,0.39062 -0.51953,0.98828 -0.51953,1.79296 z m 0,0"
     id="path293" />
  <path
     style="fill:#000000;fill-opacity:1;fill-rule:nonzero;stroke:none"
     d="m 344.23437,408.39844 v -0.78907 c -0.40625,0.625 -0.98828,0.9375 -1.75,0.9375 -0.48828,0 -0.9375,-0.14062 -1.35156,-0.41796 -0.41797,-0.27735 -0.74609,-0.65625 -0.98047,-1.14454 -0.22265,-0.48437 -0.33203,-1.04687 -0.33203,-1.6875 0,-0.625 0.10156,-1.1875 0.3125,-1.6875 0.20703,-0.51171 0.50781,-0.90234 0.91406,-1.16796 0.41797,-0.26172 0.88282,-0.39454 1.39844,-0.39454 0.375,0 0.70703,0.0781 1,0.22657 0.28906,0.15625 0.52344,0.36718 0.70703,0.625 v -3.08203 h 1.0625 v 8.58203 z m -3.33203,-3.10157 c 0,0.78907 0.16797,1.39063 0.5,1.78907 0.33203,0.39062 0.73047,0.58593 1.1875,0.58593 0.45703,0 0.84375,-0.1875 1.16797,-0.5625 0.33203,-0.375 0.5,-0.94921 0.5,-1.73046 0,-0.84375 -0.16797,-1.46875 -0.5,-1.875 -0.33594,-0.40235 -0.74219,-0.60547 -1.21094,-0.60547 -0.47265,0 -0.86718,0.19922 -1.1875,0.58593 -0.30468,0.39063 -0.45703,0.99219 -0.45703,1.8125 z m 0,0"
     id="path294" />
  <path
     style="fill:#000000;fill-opacity:1;fill-rule:nonzero;stroke:none"
     d="m 346.86719,401.02344 v -1.20703 h 1.0625 v 1.20703 z m 0,7.375 v -6.22657 h 1.0625 v 6.22657 z m 0,0"
     id="path295" />
  <path
     style="fill:#000000;fill-opacity:1;fill-rule:nonzero;stroke:none"
     d="m 349.53516,408.39844 v -6.22657 h 0.95703 v 0.89454 c 0.4414,-0.67579 1.10547,-1.01954 1.98047,-1.01954 0.375,0 0.71093,0.0703 1.01953,0.20704 0.3164,0.125 0.55078,0.30078 0.70703,0.51953 0.15234,0.21093 0.26172,0.46875 0.33594,0.77343 0.0391,0.19532 0.0625,0.53516 0.0625,1.01954 v 3.83203 h -1.0625 v -3.78907 c 0,-0.42968 -0.043,-0.75 -0.125,-0.96093 -0.0859,-0.20703 -0.23047,-0.375 -0.4375,-0.5 -0.21094,-0.13282 -0.45313,-0.20703 -0.73047,-0.20703 -0.44922,0 -0.83203,0.14453 -1.16797,0.4375 -0.32031,0.28125 -0.47656,0.82421 -0.47656,1.625 v 3.39453 z m 0,0"
     id="path296" />
  <path
     style="fill:#000000;fill-opacity:1;fill-rule:nonzero;stroke:none"
     d="m 356.01953,408.92187 1.02344,0.14454 c 0.0391,0.3164 0.15625,0.54687 0.35156,0.6875 0.26172,0.1914 0.625,0.29296 1.08594,0.29296 0.48437,0 0.85937,-0.10156 1.125,-0.29296 0.25781,-0.19922 0.4414,-0.46875 0.53906,-0.8125 0.0547,-0.22266 0.0742,-0.67188 0.0625,-1.35547 -0.45703,0.54297 -1.03125,0.8125 -1.70703,0.8125 -0.86328,0 -1.53125,-0.30078 -2,-0.91407 -0.45703,-0.625 -0.6875,-1.36718 -0.6875,-2.23046 0,-0.59375 0.10547,-1.14454 0.3125,-1.64454 0.21875,-0.5 0.53125,-0.88281 0.9375,-1.14843 0.40234,-0.27344 0.87891,-0.41407 1.4375,-0.41407 0.73437,0 1.33984,0.28907 1.8125,0.875 v -0.75 h 0.98047 v 5.375 c 0,0.96875 -0.10547,1.65625 -0.3125,2.0625 -0.19922,0.39844 -0.51172,0.71875 -0.9375,0.95704 -0.41797,0.23437 -0.9375,0.35546 -1.5625,0.35546 -0.75,0 -1.35547,-0.16796 -1.8125,-0.5 -0.44922,-0.33593 -0.66406,-0.83593 -0.64844,-1.5 z m 0.875,-3.75 c 0,0.82032 0.15625,1.41407 0.48047,1.78907 0.31641,0.375 0.71875,0.5625 1.20703,0.5625 0.48438,0 0.89844,-0.1875 1.23047,-0.5625 0.33203,-0.375 0.5,-0.95703 0.5,-1.75 0,-0.75782 -0.17578,-1.33594 -0.51953,-1.72657 -0.33594,-0.38671 -0.74219,-0.58593 -1.21094,-0.58593 -0.47266,0 -0.875,0.19922 -1.20703,0.58593 -0.32422,0.375 -0.48047,0.9375 -0.48047,1.6875 z m 0,0"
     id="path297" />
  <path
     style="fill:none;stroke:#000000;stroke-width:1.33333;stroke-linecap:round;stroke-linejoin:round;stroke-miterlimit:10;stroke-opacity:1"
     d="m 276.82399,390.19124 c 4.16407,4.16407 4.16407,10.91797 0,15.08594 -4.16795,4.16406 -10.91795,4.16406 -15.08593,0 -4.16406,-4.16797 -4.16406,-10.92187 0,-15.08594 4.16798,-4.16405 10.91798,-4.16405 15.08593,0"
     id="path298" />
  <path
     style="fill:#000000;fill-opacity:1;fill-rule:nonzero;stroke:none"
     d="m 272.79687,398.42187 v -0.79296 h -3.125 v -3.125 h -0.79296 v 3.125 h -3.125 v 0.79296 h 3.125 v 3.14454 h 0.79296 v -3.14454 z m 0,0"
     id="path299" />
  <path
     style="fill:none;stroke:#000000;stroke-width:1.33333;stroke-linecap:round;stroke-linejoin:round;stroke-miterlimit:10;stroke-opacity:1"
     d="m 296.2654,397.73421 h -8.45313"
     id="path300" />
  <path
     style="fill:none;stroke:#000000;stroke-width:1.33333;stroke-linecap:butt;stroke-linejoin:miter;stroke-miterlimit:10;stroke-opacity:1"
     d="m 282.48025,397.73421 h 5.33202 m 0,2 -5.33202,-2 5.33202,-2"
     id="path301" />
</svg>
